<svg xmlns="http://www.w3.org/2000/svg" width="48" height="48" viewBox="0 0 48 48">
    <g fill="none" fill-rule="evenodd">
        <g fill-rule="nonzero">
            <g transform="translate(-150 -29) translate(150 29)">
                <circle cx="24" cy="24" r="24" fill="#000"/>
                <path fill="#FFF" d="M5.887 23.876s.112-5.702 2.736-9.895c0 0-5.198-1.617-3.914 6.54 0 0-2.348-4.974 1.063-7.1 0 0 1.286-.838 3.358-.335l.614-1.006s-3.029-2.132-5.816 1.226c-2.786 3.357.394 8.105 1.959 10.57zM42.104 23.876s-.111-5.702-2.735-9.895c0 0 5.199-1.617 3.913 6.54 0 0 2.347-4.974-1.063-7.1 0 0-1.286-.838-3.358-.335l-.611-1.011s3.029-2.127 5.818 1.23c2.79 3.358-.397 8.106-1.964 10.57z"/>
                <g fill="#FFF">
                    <path d="M17.725.017c2.725.196 5.15 1.156 6.474 4.022 1.324 2.865.905 6.433 0 8.512l-.055.125-.057.125-.058.127-.06.126-.03.064-.062.127-.062.127-.064.127-.064.127-.066.127-.099.189-.066.125-.101.186-.068.123-.101.182-.135.239-.067.117-.1.172-.13.223-.097.161-.155.258-.118.193-.14.226-.177.28-.188.293-.211.321-.03.026-.033.025-.02.015-.034.024-.039.025-.028.017-.03.017-.016.008-.033.016-.034.016c-.234.102-.563.138-.825-.247l-.034-.052-.267-.427-.17-.268-.129-.198-.103-.157-.146-.22-.115-.17-.08-.115-.082-.118-.083-.118-.086-.12-.087-.12-.09-.12-.09-.12-.092-.12-.093-.12-.094-.119-.096-.118-.097-.116c-.68-.809-1.427-1.495-2.085-1.615l.048.063.071.096.064.088.076.105.087.123.048.068.103.148c1.469 2.135 5.551 8.809 3.279 14.114l-.088.198-.017.033-.015.028-.03.056-.026.046-.031.053-.036.058-.041.065c-.008.01-.015.022-.023.034l-.048.072c-.026.037-.054.077-.084.117l-.062.084c-.794 1.044-2.847 2.98-7.179 2.999-5.818-.023-7.53-3.506-7.595-3.645l-.002-.005c-2.962-6.427 3.69-14.998 3.69-14.998-1.568.285-3.642 3.781-4.1 4.501-.459.72-1.142.088-1.142.088s-1.626-2.412-2.53-4.49c-.905-2.079-1.325-5.647 0-8.512C2.167 1.173 4.591.213 7.317.017c1.816-.13 3.55.49 5.203 1.864C14.173.508 15.908-.114 17.725.017z" transform="translate(11.479 11.92)"/>
                </g>
                <path fill="#000" d="M24.25 29.682s.159-.826.55-.275c.393.552-.236.71.985 1.142 0 0 .63.394.276.945.003 0-1.81.04-1.81-1.812z" transform="matrix(-1 0 0 1 50.42 0)"/>
                <path fill="#000" d="M21.838 29.682s.159-.826.55-.275c.393.552-.236.71.985 1.142 0 0 .63.394.276.945.002 0-1.81.04-1.81-1.812z"/>
                <g>
                    <path fill="#000" d="M5.94 2.97c0 1.2-.724 2.284-1.834 2.743-1.11.46-2.387.205-3.237-.644C.02 4.219-.234 2.942.226 1.832.686.722 1.77 0 2.971 0c.787 0 1.543.313 2.1.87.556.557.868 1.312.868 2.1z" transform="translate(14.753 14.733)"/>
                    <g fill="#FFF">
                        <path d="M1.743.992c-.064.479-.504.815-.983.751C.281 1.68-.055 1.24.008.762.07.282.509-.055.988.007c.231.03.44.151.582.336.142.185.204.418.173.65zM2.703 2.31c-.034.26-.27.442-.53.409-.259-.034-.441-.27-.408-.53.034-.259.27-.441.53-.408.124.016.237.081.314.18.076.1.11.225.094.35z" transform="translate(14.753 14.733) translate(2.302 .836)"/>
                    </g>
                </g>
                <g>
                    <path fill="#000" d="M4.106 5.713c-1.11.46-2.387.205-3.237-.644C.02 4.219-.234 2.942.226 1.832.686.722 1.77 0 2.971 0c.787 0 1.543.313 2.1.87.556.557.868 1.312.868 2.1 0 1.2-.723 2.284-1.833 2.743z" transform="translate(27.26 14.732)"/>
                    <g fill="#FFF">
                        <path d="M1.743.992c-.064.479-.504.815-.983.751C.281 1.68-.055 1.24.008.762.07.282.509-.055.988.007c.231.03.44.151.582.336.142.185.204.418.173.65zM2.173 2.719c-.259-.034-.441-.27-.408-.53.034-.259.27-.441.53-.408.124.016.237.081.314.18.076.1.11.225.094.35-.034.259-.27.441-.53.408z" transform="translate(27.26 14.732) translate(2.302 .836)"/>
                    </g>
                </g>
                <path fill="#000" d="M23.992 38.414c-1.603 0-4.145-1.55-5.969-4.85l.08.077.087.082.085.075.073.065.083.07.091.078.066.054.105.085.037.03.077.06.121.093.085.064.09.065.091.067.096.067.098.069.05.034.104.07.107.07.054.034.111.07c.037.024.075.048.114.07l.117.071.06.035.12.07c1.02.58 2.226 1.185 3.771 1.185s2.435-.485 3.391-.98l.13-.067c.127-.068.251-.138.37-.208l.12-.07.115-.07.167-.106.108-.07.105-.07.102-.068.098-.069.096-.067.137-.1.087-.064.083-.064.04-.03.08-.062.11-.088.07-.056.065-.054.091-.077.056-.048.077-.067.068-.06.058-.053.084-.078.065-.063c-1.824 3.298-4.374 4.85-5.977 4.85z"/>
            </g>
        </g>
    </g>
</svg>
