<?xml version="1.0" standalone="no"?>
<!DOCTYPE svg PUBLIC "-//W3C//DTD SVG 1.1//EN" "http://www.w3.org/Graphics/SVG/1.1/DTD/svg11.dtd" >
<svg xmlns="http://www.w3.org/2000/svg" xmlns:xlink="http://www.w3.org/1999/xlink" version="1.1">
<metadata>
Created by FontForge 20170731 at Fri Sep  1 05:36:25 2017
 By Aleksey,,,
</metadata>
<defs>
<font id="brusher" horiz-adv-x="600" >
  <font-face 
    font-family="Brusher"
    font-weight="400"
    font-stretch="normal"
    units-per-em="1000"
    panose-1="0 0 5 0 0 0 0 0 0 0"
    ascent="800"
    descent="-200"
    x-height="406"
    cap-height="757"
    bbox="-150.509 -459.667 797 889.095"
    underline-thickness="50"
    underline-position="-150"
    unicode-range="U+000D-00B1"
  />
<missing-glyph horiz-adv-x="500" 
d="M0 700h500v-700h-500v700zM420 650h-340l170 -255zM450 95v510l-170 -255zM420 50l-170 255l-170 -255h340zM50 95l170 255l-170 255v-510z" />
    <glyph glyph-name="f_f.liga" unicode="ff" 
d="M723 229l-185 -111q21 -126 19 -215t-17 -149t-38.5 -94t-47 -52t-42.5 -23t-23 -5h-1q-20 0 -33.5 29t-22.5 78t-13.5 114t-6 137.5t-1 147.5t2.5 145l-58 -11q21 -126 19.5 -215t-16.5 -149t-39 -94t-47.5 -52t-42 -23t-22.5 -5h-1q-23 0 -38 40.5t-24 106.5t-12 150.5
t-3 173t2.5 174t6 153.5t6 111t3.5 48q3 34 6 60.5t8.5 45t15 28t25.5 8.5q2 0 22.5 -3.5t47.5 -21.5q32 -21 52 -56q27 -42 36 -105q16 -108 -26 -188q-9 -17 -19 -30.5t-21 -24.5q-3 -70 -5 -143t-2.5 -140.5t0 -127t3.5 -102.5q29 69 37 140.5t6 129.5q-3 68 -17 131
q24 4 49.5 8t48.5 8q2 57 4 107t4.5 87.5t4 60.5t1.5 26q3 34 6 60.5t8.5 45t15 28t26.5 8.5q1 0 22 -3.5t47 -21.5q33 -22 53 -56q26 -43 35 -105q18 -108 -26 -188q-9 -17 -19 -30.5t-21 -24.5q-2 -70 -4 -143t-3 -140.5t-0.5 -127t3.5 -102.5q30 69 37.5 140.5t5.5 129.5
q-3 68 -16 131q37 20 77 40l74 37q40 19 77 38zM489 532q-2 -44 -5 -104.5t-6 -129.5q14 19 24 44t14 57q0 2 1 16.5t-1 34t-8 42t-19 40.5zM208 634q-2 -45 -5.5 -105t-5.5 -129q13 19 23 44t15 57q0 2 0.5 16.5t-1.5 34t-7.5 42t-18.5 40.5z" />
    <glyph glyph-name="l_l.liga" unicode="ll" horiz-adv-x="500" 
d="M607 201q-1 -4 -8.5 -24.5t-21 -49t-32 -62.5t-42 -65t-51.5 -56t-60 -36q-8 -4 -16.5 -5.5t-16.5 -1.5q-3 -1 -10 -1h-1q-18 0 -30.5 16.5t-21.5 45.5t-14.5 67.5t-7.5 82.5q-14 -24 -30.5 -48.5t-36 -45.5t-41 -37t-45.5 -25q-8 -4 -16.5 -5.5t-16.5 -2.5q-7 0 -10 -1
h-1q-23 0 -38 27.5t-24 73t-12 103t-3 118.5t2.5 120t6 106.5t6 78t3.5 35.5q3 34 6 60.5t8.5 45t15 28t25.5 8.5q2 0 22.5 -3.5t47.5 -21.5q32 -21 52 -56q27 -42 36 -105q16 -108 -26 -188q-11 -19 -22 -33.5t-22 -25.5q-2 -55 -3.5 -105.5t0.5 -90.5q3 -48 13.5 -61.5
t35.5 15.5q20 23 36 49.5t29 50.5q-1 66 1.5 132.5t5.5 121.5t6.5 91t3.5 41q3 33 6 59.5t8.5 45t15 28t26.5 8.5q1 0 22 -3t47 -21q32 -21 53 -56q26 -45 35 -105q8 -54 2 -101.5t-28 -87.5q-10 -18 -21.5 -33t-22.5 -26q-2 -55 -3 -105t0 -91q3 -47 13.5 -60.5t35.5 15.5
q24 28 42.5 60.5t31.5 59.5q15 32 27 63zM449 557q-4 -50 -8 -112t-7 -128q14 20 25.5 46t16.5 61q0 2 1 16.5t-1 34t-8 42t-19 40.5zM178 604q-4 -50 -8 -112t-7 -128q14 20 25.5 46t16.5 61q0 2 0.5 16.5t-1.5 34t-7.5 42t-18.5 40.5z" />
    <glyph glyph-name="t_t.liga" unicode="tt" horiz-adv-x="579" 
d="M703 294q-34 -113 -82 -202q-21 -38 -46.5 -74t-56 -64.5t-66 -46t-75.5 -17.5q-34 2 -51.5 44.5t-25.5 111.5q-19 -23 -40.5 -42.5t-45.5 -34t-50 -21.5t-53 -5q-23 1 -38.5 22t-25 56.5t-14 83.5t-5.5 102t0.5 112.5t4.5 115.5q-6 0 -9 -1q-11 0 -21.5 -0.5t-19.5 -0.5
q-10 -1 -17.5 -1h-14.5q-7 -1 -12 -1h-9h-7l-3 32h2q3 0 5 1l21 3q6 1 14 2t17 2q10 2 20 3t21 3q4 0 7.5 0.5t8.5 0.5v11q0 5 1 20t2 26q2 42 4 78.5t3 66.5t0.5 51t-3.5 32q48 8 84 -2q15 -4 29.5 -12.5t25 -23t16 -36t3.5 -52.5q-3 -36 -6 -89q-1 -11 -1 -20
q-1 -8 -1 -15.5v-10.5v-7q5 0 9 0.5t9 0.5l30 3q15 2 30.5 2.5t29.5 2.5h6q5 75 6.5 130.5t-3.5 75.5q47 8 83 -2q15 -4 29.5 -12.5t25 -23.5t16 -36.5t3.5 -52.5q-1 -14 -2 -31.5t-2 -37.5q11 0 21.5 0.5t19.5 0.5q10 1 17.5 1h14.5q7 1 12 1h9h7l3 -32h-2q-1 0 -2.5 -0.5
t-3.5 -0.5q-6 -1 -20 -3q-7 -1 -14.5 -2t-16.5 -2q-10 -2 -20 -3t-22 -3h-5q-1 -7 -1 -13v-9q-2 -42 -3.5 -85.5t-2.5 -88.5q0 -66 1.5 -122.5t8.5 -93.5t22.5 -48t44.5 13q13 11 26.5 29t26.5 40.5t25 47t23 48.5q26 56 49 121zM303 436v7t1 11q-15 -2 -29.5 -2.5
t-28.5 -2.5q-8 -1 -15.5 -1t-15.5 -1q-6 -1 -12 -1.5t-12 -0.5q-3 -57 -3 -117q0 -66 -0.5 -126t5 -100.5t20 -55.5t43.5 9q18 15 40 45q-4 76 -1 164t8 172z" />
    <glyph glyph-name=".notdef" horiz-adv-x="500" 
d="M0 700h500v-700h-500v700zM420 650h-340l170 -255zM450 95v510l-170 -255zM420 50l-170 255l-170 -255h340zM50 95l170 255l-170 255v-510z" />
    <glyph glyph-name=".null" horiz-adv-x="0" 
 />
    <glyph glyph-name="nonmarkingreturn" unicode="&#xd;" horiz-adv-x="300" 
 />
    <glyph glyph-name="NULL" horiz-adv-x="0" 
 />
    <glyph glyph-name="NULL" horiz-adv-x="0" 
 />
    <glyph glyph-name="space" unicode=" " horiz-adv-x="300" 
 />
    <glyph glyph-name="exclam" unicode="!" horiz-adv-x="610" 
d="M404 220q-5 -13 -18 -24t-29.5 -19.5t-34 -13.5t-30.5 -5q-33 -1 -52.5 21.5t-29 60.5t-10.5 88t2.5 104.5t9.5 109t11 102.5t6.5 85.5t-3.5 56.5q54 9 94 -2q17 -5 33 -14.5t28 -26t18.5 -41.5t3.5 -59q-5 -69 -11.5 -140.5t-8.5 -131t2 -100.5t19 -51zM221 71
q51 23 89 18q16 -2 31 -10.5t25.5 -27t14.5 -48t0 -73.5q-52 -11 -82.5 -10t-46.5 10t-20.5 25t-5 35.5t0 40.5t-5.5 40z" />
    <glyph glyph-name="quotedbl" unicode="&#x22;" 
d="M281 684q13 -24 12.5 -50t-11.5 -51t-31 -46t-46 -35l-28 15q17 34 22 65q5 26 -0.5 52.5t-33.5 40.5q6 4 20.5 13.5t32 15.5t35 3.5t28.5 -23.5zM404 684q12 -24 11.5 -50t-11 -51t-30.5 -46t-46 -35l-29 15q17 34 22 65q5 26 -0.5 52.5t-33.5 40.5q6 4 21 13.5
t32.5 15.5t35 3.5t28.5 -23.5z" />
    <glyph glyph-name="numbersign" unicode="#" 
d="M58 373q-22 35 18 61q17 11 49 21t85.5 17t131.5 9.5t187 -0.5q14 -31 -12 -50t-73.5 -29.5t-108.5 -14.5t-118 -6t-101 -3t-58 -5zM65 195q-22 35 18 61q17 11 49 21t85.5 16.5t131.5 9.5t187 -1q14 -31 -12 -49.5t-73.5 -29t-108.5 -14.5t-118 -6t-101 -3t-58 -5z
M222 100q-39 -18 -57 29q-8 19 -12 54.5t-1 93t14.5 140t34.5 195.5q25 7 38.5 -9t19 -47.5t4.5 -74t-5.5 -89.5t-11 -94t-12.5 -87.5t-9.5 -70t-2.5 -40.5zM399 75q-39 -17 -57 30q-8 20 -12 55.5t-1.5 92.5t14 139t34.5 196q25 7 38.5 -9.5t19.5 -47.5t5 -74t-5.5 -89.5
t-11 -94t-12.5 -87.5t-9.5 -70t-2.5 -41z" />
    <glyph glyph-name="dollar" unicode="$" 
d="M474 195q-2 -30 -27.5 -68t-85.5 -87q3 -52 15 -64q-4 -18 -15 -33.5t-24.5 -27t-27.5 -18.5t-24 -7q-23 -1 -38 22t-23 64q-15 0 -30 3q-50 11 -62.5 37.5t0.5 61.5q6 18 11.5 39t9.5 41t6 36.5t2 25.5h43q-3 -22 -6 -43q-2 -19 -5.5 -40t-5.5 -39q-1 -8 6.5 -6t18.5 9
q6 4 13 8t14 9q90 62 102.5 107.5t-46.5 77.5q-18 11 -38 21.5t-39 21.5q-20 12 -38.5 24.5t-32 27t-21 31t-6.5 35.5q2 31 28 69.5t87 87.5q2 48 2.5 85t-2.5 58q28 8 54 4q22 -4 44 -22t35 -63q14 1 32 -2q50 -11 62.5 -37.5t-0.5 -62.5q-6 -18 -11.5 -39t-9 -40.5t-6 -36
t-2.5 -25.5h-43q3 21 6 43q2 18 5 39.5t6 39.5q1 8 -7.5 5t-22.5 -11q-12 -7 -22 -14q-45 -31 -68.5 -59t-28.5 -52t6 -43.5t35 -31.5q14 -8 31 -16t35 -18q21 -12 40.5 -25.5t35 -29.5t25 -33.5t8.5 -37.5v-1z" />
    <glyph glyph-name="percent" unicode="%" horiz-adv-x="660" 
d="M254 41q-11 -12 -26.5 -19.5t-32 -10t-32 -1.5t-24.5 5q-24 11 -26 42.5t12.5 76t41.5 99t59.5 112t67 115t64.5 108t52 90t29 62.5q43 -11 66 -37q10 -12 16 -28t5.5 -38.5t-9.5 -51t-30 -65.5q-42 -73 -86 -148t-78.5 -138.5t-54.5 -110t-14 -62.5zM230 685
q19 -12 30 -31t14 -41t-2 -45.5t-19 -44.5q-14 -22 -33 -36.5t-40.5 -20.5t-43 -3t-40.5 15t-30 31t-14.5 41t1.5 45.5t19 44.5t33.5 35.5t41 20.5t43 3.5t40.5 -14.5zM560 243q21 -13 33 -33.5t15.5 -44.5t-2 -49.5t-20.5 -49.5q-15 -23 -36 -38.5t-44.5 -22.5t-47 -4
t-44.5 16t-33 33.5t-15.5 44.5t2 49.5t20.5 49.5q15 23 36 38.5t44.5 22.5t47 4t44.5 -16z" />
    <glyph glyph-name="ampersand" unicode="&#x26;" 
d="M508 520q28 -6 51 -32t29.5 -58.5t-8 -64.5t-60.5 -51q-13 -5 -25 -10l-24 -10q1 -6 1 -11.5v-11.5q0 -29 -3.5 -58.5t-13.5 -58.5q-29 -83 -68 -126.5t-79 -63t-75.5 -22t-56.5 -2.5q-20 0 -48 8t-54 31t-44.5 64t-19.5 108q-1 53 12 93t34 69.5t46.5 49.5t49.5 32
q7 2 13 6q5 2 11 5t11 5q10 4 18.5 6t13.5 4q-27 12 -61.5 32.5t-62.5 49.5t-42.5 66.5t-1.5 84.5q9 34 35.5 44.5t60.5 6.5t72 -17t71 -27q3 9 5.5 18.5t5.5 20.5q7 24 25 27t38 -2q23 -7 49 -23q-4 -4 -9 -21.5t-11.5 -39.5t-16.5 -45t-23.5 -40t-32.5 -23.5t-44 4.5
q-2 1 -2.5 1t-2.5 1q-45 19 -81 33.5t-57.5 17.5t-27 -7t9.5 -39q14 -27 39.5 -48.5t51.5 -36.5q30 -18 63 -31l-6 -27l-6 -6q-3 -3 -7 -7.5t-9 -10.5q-7 -7 -13 -16l-8 -10q-15 -20 -31.5 -47.5t-27 -60t-11 -69t16.5 -75.5q14 -32 46 -35.5t67.5 11.5t67 43.5t45.5 60.5
q6 17 11 32t8 30q2 7 3 13.5t2 12.5q-50 -27 -75.5 -55.5t-14.5 -60.5q-11 -1 -31.5 8t-39 25.5t-31 38.5t-7 47t33.5 52t89 53q20 8 37 15.5t32 15.5q22 10 39 21q29 17 42 33t17 30q4 16 0 30z" />
    <glyph glyph-name="quotesingle" unicode="'" horiz-adv-x="181" 
d="M141 703q13 -24 12.5 -50.5t-11.5 -51t-31 -46t-46 -35.5l-28 16q17 34 22 65q5 26 -0.5 52t-33.5 40q6 4 20.5 14t32 16t35 3.5t28.5 -23.5z" />
    <glyph glyph-name="parenleft" unicode="(" horiz-adv-x="273" 
d="M145 740q52 -7 74 -28t24 -52t-11 -70t-30.5 -81.5t-34.5 -86t-22 -84.5q-7 -50 -3 -93t15 -80.5t26.5 -69t32.5 -57.5q18 -29 14.5 -58t-17 -51t-30.5 -33t-26 -3q-6 5 -21 26t-34.5 53.5t-40 74.5t-36 90.5t-22.5 100.5t0 104q12 88 35 155.5t46 117t40.5 80.5t20.5 45
z" />
    <glyph glyph-name="parenright" unicode=")" horiz-adv-x="273" 
d="M128 -110q-52 7 -74 28t-24 52t11 70t30.5 81.5t34 86t22.5 84.5q7 49 3 92.5t-15 80.5t-26.5 68.5t-32.5 58.5q-18 28 -14.5 57.5t17 51t30.5 32.5t26 4q5 -5 20.5 -26t35 -53.5t40 -75t36 -90.5t22.5 -100.5t0 -104.5q-12 -88 -35 -155.5t-46 -116.5t-40.5 -80
t-20.5 -45z" />
    <glyph glyph-name="asterisk" unicode="*" 
d="M389 540q22 -15 36 -28.5t21.5 -25t10 -21t1.5 -17.5q-3 -18 -20 -31q-8 8 -37 21.5t-67 30.5q-4 -42 -7 -73t0 -41q-20 -9 -37 -1q-7 3 -14.5 10.5t-13.5 20.5t-10.5 32.5t-6.5 47.5q-35 -17 -61.5 -28.5t-33.5 -19.5q-18 13 -20 31q-2 16 11.5 38.5t57.5 53.5
q-21 14 -37.5 28.5t-24.5 29.5t-6.5 29.5t15.5 28.5q29 -11 55.5 -21.5t49.5 -20.5q3 26 7 54t10 60q20 5 33.5 -1.5t22 -22.5t12.5 -38.5t5 -49.5q43 19 101 40q14 -14 15.5 -28.5t-7 -29.5t-24.5 -29.5t-37 -28.5z" />
    <glyph glyph-name="plus" unicode="+" 
d="M506 301q8 -23 -2.5 -38t-34 -24.5t-57 -14.5t-70.5 -6q0 -29 -1 -55t-1.5 -47.5t0 -37t2.5 -22.5q-23 -12 -42 -1q-8 5 -16.5 15.5t-15 29.5t-12 47.5t-7.5 69.5q-29 0 -55 1t-47.5 1.5t-37 0.5t-22.5 -2q-12 22 -1 41q5 8 15.5 16t29.5 15t47 12.5t69 7.5q1 35 3.5 76
t7.5 89q23 8 38 -2.5t24.5 -33.5t14 -56.5t6.5 -70.5q35 -1 76 -3.5t89 -7.5z" />
    <glyph glyph-name="comma" unicode="," horiz-adv-x="372" 
d="M272 48q0 -11 -0.5 -23.5t-4.5 -26.5v-6h-1q-8 -32 -32 -67t-77 -65l-24 25q12 11 23 27q9 13 16.5 32t9.5 44q-36 3 -51.5 18t-20.5 35.5t-5 44.5t-5 46q46 14 84 11q16 -1 31.5 -6t27.5 -16t20 -29t9 -44z" />
    <glyph glyph-name="hyphen" unicode="-" horiz-adv-x="496" 
d="M111 221q-21 38 -1 63q9 10 27.5 19t51.5 13.5t82 3t120 -11.5q12 -33 -1 -51t-39.5 -26.5t-62.5 -9.5t-71 0t-64 2.5t-42 -2.5z" />
    <glyph glyph-name="period" unicode="." horiz-adv-x="362" 
d="M100 141q51 23 89 18q16 -2 31 -10.5t25 -27t14.5 -48t-0.5 -73.5q-52 -11 -82.5 -10t-46 10t-20 25t-5 35.5t0 40.5t-5.5 40z" />
    <glyph glyph-name="slash" unicode="/" 
d="M265 -4q-8 -14 -22.5 -23.5t-30.5 -15t-31 -7t-25 1.5q-26 7 -32.5 37.5t0.5 77t24.5 104.5t40 120t47.5 124.5t46.5 117t36.5 97.5t18 66q44 -2 71 -25q12 -10 20.5 -25t11.5 -37t-1 -52t-19 -70q-30 -79 -61 -160t-54.5 -149.5t-35.5 -117.5t-4 -64z" />
    <glyph glyph-name="zero" unicode="0" horiz-adv-x="473" 
d="M314 662q42 -6 74.5 -39.5t53.5 -86t28 -120t-3 -141.5t-35 -137t-58.5 -107.5t-74 -67.5t-82.5 -17q-56 7 -100 38.5t-72 83t-39 120.5t-2 150q9 75 30.5 147t44 133t39.5 106.5t17 65.5q6 5 32 7t53.5 -7.5t46.5 -34t12 -72.5q-1 -5 -2 -10.5t-3 -11.5q19 4 40 1z
M428 305q8 57 5 108.5t-14.5 91.5t-31.5 65t-45 29q-26 3 -51.5 -15.5t-47.5 -53.5t-38.5 -84t-24.5 -106t-5 -108.5t15 -91.5t31.5 -65t45.5 -29q25 -3 50.5 15.5t47.5 53.5t38.5 84t24.5 106z" />
    <glyph glyph-name="one" unicode="1" horiz-adv-x="422" 
d="M419 614q-4 -46 -8 -107.5t-7 -127.5t-5 -130.5t-0.5 -117t6.5 -88t15 -41.5q-5 -13 -18 -24t-29.5 -19.5t-34 -13.5t-30.5 -5q-30 -1 -48.5 24t-28.5 68t-13 99.5t-1 120t6.5 130t9.5 127.5q-15 -17 -30.5 -35t-31.5 -36q-15 -18 -30.5 -24.5t-30.5 -6t-29 7.5t-26 17
q-29 23 -55 63q8 4 24 22t38.5 43.5t49.5 56.5t56 60t59.5 52.5t59.5 36.5t55.5 10.5t47.5 -25.5q16 -17 23 -35.5t8.5 -36.5t0 -35t-2.5 -30z" />
    <glyph glyph-name="two" unicode="2" horiz-adv-x="473" 
d="M53 61q9 38 39 71.5t64.5 66.5t66.5 69t46 80.5t2.5 99.5t-64.5 126q-9 11 -21 21.5t-22.5 17t-18 7t-7.5 -7.5q-2 -26 0 -56t5 -56l8 -62l-41 6q-10 36 -19 71q-8 30 -14.5 63t-8.5 59q-3 26 7 48.5t28 40.5t41.5 30.5t48.5 17.5q27 6 51 -6.5t42 -29.5t29 -34t14 -20
q64 -98 83 -169.5t7.5 -124t-45 -90.5t-74.5 -68.5t-81 -58t-64 -59.5q-10 -14 3.5 -10t46.5 11.5t83.5 12t113.5 -8.5q24 -5 38.5 -15.5t22 -24t9 -29t-0.5 -30.5q-4 -37 -26 -80q-10 7 -46 5.5t-83 -3.5t-98.5 -1.5t-91.5 11.5t-62 36.5t-11 72.5z" />
    <glyph glyph-name="three" unicode="3" horiz-adv-x="515" 
d="M352 405q27 -15 56 -38t53 -56.5t39 -79.5t15 -107q0 -62 -30.5 -107.5t-78 -70t-105.5 -26.5t-111.5 23t-97 78.5t-62.5 140.5q37 42 66 51t54 -1.5t48 -35t48 -49.5q17 -17 37.5 -26.5t41 -10.5t38 6t27.5 23q20 31 23.5 60.5t-4.5 56t-24.5 49.5t-37.5 43
q-48 46 -123 83l-6 32q38 15 72 35q29 17 58.5 41.5t46.5 55.5q18 33 12.5 41.5t-29 0.5t-63.5 -28t-92 -43q-20 -9 -36 -8t-28.5 8.5t-21.5 20t-16 26.5q-16 33 -22 81q11 0 39.5 12.5t66 28t79.5 29.5t79.5 17t65.5 -9.5t39 -50.5q15 -53 -1.5 -96t-49 -76.5t-72 -57
t-70.5 -37.5q16 -4 37 -12q5 -2 12 -4.5t13 -5.5q7 -4 15 -7z" />
    <glyph glyph-name="four" unicode="4" horiz-adv-x="498" 
d="M332 645q50 7 88 -4q16 -5 31 -14.5t26.5 -25.5t17 -40t2.5 -58q-4 -45 -9 -98t-9 -107t-6.5 -105t-2 -92.5t5 -69t14.5 -33.5q-5 -12 -18.5 -23t-30 -18.5t-33.5 -12t-29 -4.5q-36 0 -54.5 36t-25.5 95t-4.5 134t8.5 153q-9 -21 -28 -40t-42.5 -33.5t-48.5 -24
t-46 -12.5q-35 -4 -56 13t-33 48t-16 72.5t-3 86t5 89.5t7 82.5t4.5 64t-2.5 35.5q49 15 88 12q16 -1 31.5 -6t27 -15.5t18 -27.5t5.5 -42q-2 -46 -7 -92t-8.5 -87t-4.5 -73.5t4 -51t17 -19.5t34 21q45 45 63 95t23 93q5 50 -3 99z" />
    <glyph glyph-name="five" unicode="5" horiz-adv-x="549" 
d="M178 471q110 -17 184 -52t117.5 -80t58.5 -97t8.5 -102.5t-32.5 -96.5t-65.5 -79.5t-89.5 -51t-105 -11t-112.5 40.5t-111.5 103q22 52 46.5 69.5t51.5 15.5t56.5 -18t61.5 -32q22 -11 46 -8.5t46 17.5t38 43t21 68q5 37 -3.5 67t-26 53t-41 40.5t-49.5 30.5
q-61 29 -141 42q-2 3 -4 7q-4 5 -10 19l-1 2v1q-11 23 -21 67.5t-6 113.5q1 42 28 63.5t66.5 29t87 5t90.5 -8t76 -10.5t44 -2q7 -47 0 -82q-3 -15 -9.5 -29t-17.5 -24.5t-27 -15.5t-39 -3q-69 7 -116 11.5t-73 -2.5t-32 -31t6 -73z" />
    <glyph glyph-name="six" unicode="6" horiz-adv-x="482" 
d="M392 365q51 -38 72.5 -96t16.5 -127q-3 -53 -23 -98.5t-51.5 -78t-72 -50.5t-85.5 -15q-25 2 -46 9q-50 15 -86.5 50t-58 85t-27 113.5t8.5 136.5q13 72 39 140t52 125.5t46.5 99.5t21.5 62q4 3 18 4.5t31.5 -1t36.5 -9.5t32.5 -20.5t20 -34.5t-0.5 -51q-1 -5 -3 -10
t-4 -11q-17 -31 -35 -68q-15 -32 -32.5 -73t-31.5 -86q26 18 49.5 25t43.5 5.5t37 -9t31 -17.5zM285 -1q24 -3 47.5 8.5t43 34t33.5 54.5t19 70t0.5 72.5t-17.5 61t-32.5 44t-43.5 20.5t-47.5 -8.5t-43 -34t-33.5 -54.5t-19 -70t-0.5 -72.5t17 -61.5t32 -44t44.5 -20z" />
    <glyph glyph-name="seven" unicode="7" horiz-adv-x="467" 
d="M453 676q11 -20 13 -39.5t-1 -37.5t-9 -34t-10 -28q-15 -44 -34.5 -102.5t-39 -121.5t-37.5 -125.5t-30 -113.5t-16 -86t4 -44q-8 -11 -23.5 -18.5t-33.5 -11.5t-36.5 -4t-30.5 3q-36 8 -47 42.5t-6 85.5t23.5 114t41.5 129.5t47 131.5t42 119q14 40 11 51.5t-24.5 8.5
t-62.5 -13.5t-104 -14.5q-23 -2 -39 5t-26 19t-15.5 28.5t-7.5 33.5q-5 40 4 92q11 2 43 8t75 11t92.5 6t95 -7.5t83.5 -29t58 -57.5z" />
    <glyph glyph-name="eight" unicode="8" horiz-adv-x="438" 
d="M236 447q30 -24 63 -48.5t59 -53t40.5 -63t10 -78t-33.5 -98t-90 -123.5l-16 -16t-23 -21q-22 -17 -50.5 -29.5t-58.5 -2.5q-24 7 -46.5 24t-40.5 39t-30.5 47.5t-16.5 51.5q-8 43 5 90t39.5 94.5t62.5 93t75 86.5q-21 19 -42 37.5t-38 37.5t-28 39.5t-13 42.5
q-4 48 17.5 77.5t56.5 46t78.5 23.5t84 9t72 3t43.5 6q1 0 1 -1q0 -2 1 -3q3 -6 10 -23t9 -38t-3.5 -44.5t-27.5 -43.5q-7 -6 -24 -21t-40 -36t-50.5 -47.5t-55.5 -57.5zM157 530q9 -17 23.5 -32.5t31.5 -30.5q42 42 79 74t62 52q-2 -1 -6 -1q-65 -3 -105.5 -7.5t-62 -11.5
t-26 -17.5t3.5 -25.5zM215 113q54 53 71.5 96.5t11 80t-31.5 67.5t-56 60q-26 -30 -49 -63t-40.5 -66t-27.5 -66.5t-9 -65.5q1 -41 17.5 -56.5t38.5 -16t43 9.5t32 20z" />
    <glyph glyph-name="nine" unicode="9" horiz-adv-x="452" 
d="M90 291q-51 38 -72.5 96t-16.5 126q3 53 23 98.5t51.5 78.5t72.5 50.5t86 14.5q24 -2 46 -9q49 -15 85.5 -49.5t58 -85t27 -114t-7.5 -136.5q-13 -71 -39 -139.5t-52.5 -125.5t-47 -99.5t-21.5 -62.5q-4 -3 -18 -4t-31.5 1.5t-36.5 9.5t-32.5 20.5t-20 34t0.5 51.5
q2 5 3.5 10t3.5 11q17 31 35 68q15 31 32 72t32 86q-26 -18 -49.5 -24.5t-43.5 -5.5t-37 8.5t-31 18.5zM198 657q-25 3 -48.5 -8.5t-43 -34t-33.5 -54.5t-19 -70t0 -72.5t17.5 -61.5t32 -44t43.5 -20q25 -3 48.5 8.5t43 34t33.5 54.5t19 70t0 72.5t-17.5 61t-32 44
t-43.5 20.5z" />
    <glyph glyph-name="colon" unicode=":" horiz-adv-x="362" 
d="M100 443q51 23 89 19q16 -2 31 -10.5t25 -26.5t14.5 -48t-0.5 -74q-52 -11 -82.5 -10.5t-46 10t-20 25t-5 35t0 40.5t-5.5 40zM100 201q51 23 89 18q16 -2 31 -10.5t25 -27t14.5 -48t-0.5 -73.5q-52 -11 -82.5 -10t-46 10t-20 25t-5 35.5t0 40.5t-5.5 40z" />
    <glyph glyph-name="semicolon" unicode=";" horiz-adv-x="372" 
d="M272 174q0 -11 -0.5 -23.5t-4.5 -26.5v-6h-1q-8 -32 -32 -67t-77 -65l-24 25q12 11 23 27q9 13 16.5 32t9.5 44q-36 3 -51.5 18t-20.5 35.5t-5 44.5t-5 46q46 14 84 11q16 -1 31.5 -6t27.5 -16t20 -29t9 -44zM100 492q51 23 89 19q16 -2 31 -10.5t25 -26.5t14.5 -48
t-0.5 -74q-52 -11 -82.5 -10.5t-46 10t-20 25t-5 35t0 40.5t-5.5 40z" />
    <glyph glyph-name="less" unicode="&#x3c;" 
d="M115 193q-23 36 -12 70t40.5 65t71 58.5t81.5 49.5t71 38t39 24q29 -40 40 -74q5 -15 6.5 -30.5t-3 -29.5t-16.5 -26t-34 -20q-57 -22 -100.5 -40.5t-65.5 -34.5t-18.5 -30t42.5 -27q22 -7 53.5 -16t62 -17t54.5 -14.5t32 -7.5q2 -6 -1.5 -27.5t-13 -44.5t-25 -41.5
t-38.5 -17.5q-28 1 -63.5 15.5t-71.5 40t-70.5 60.5t-60.5 77z" />
    <glyph glyph-name="equal" unicode="=" 
d="M135 281q-14 36 14 60q12 10 34.5 18t60.5 12t93 2t132 -12q9 -32 -9.5 -49t-52 -25t-77 -8.5t-83.5 1t-71 3t-41 -1.5zM138 103q-15 36 13 60q12 10 35 18t60.5 11.5t92.5 1.5t132 -12q9 -32 -9 -49t-52 -24.5t-77 -8t-83 1t-71 3t-41 -1.5z" />
    <glyph glyph-name="greater" unicode="&#x3e;" 
d="M465 305q22 -36 11.5 -70t-40 -65.5t-71.5 -59t-81.5 -49t-70.5 -37.5t-39 -24q-29 38 -40 73q-5 15 -6.5 30.5t3 29.5t16 26.5t33.5 20.5q57 22 101 40.5t66 34.5t18 30t-42 27q-22 7 -53.5 16t-62.5 17t-55 13.5t-31 7.5q-2 6 1.5 27.5t12.5 45t24.5 41.5t38.5 18
q28 -1 63.5 -15.5t72 -40t70.5 -60.5t61 -77z" />
    <glyph glyph-name="question" unicode="?" horiz-adv-x="528" 
d="M239 60q51 23 89 19q16 -2 31 -10.5t25 -26.5t14.5 -48t-0.5 -74q-52 -11 -82.5 -10.5t-46 10t-20 25t-5 35t0 40.5t-5.5 40zM378 285q34 -1 48 -19t18 -41q4 -26 -1 -59q-13 0 -33.5 -3.5t-43.5 -6t-48 -1t-47.5 12t-41.5 32t-30 59.5q-11 37 -4 67.5t24.5 56t42.5 46
t49.5 37t45.5 29.5t31 23q32 33 30 54t-31.5 30t-82.5 7.5t-122 -13.5q-27 -5 -46 -1t-31.5 14t-20 24.5t-11.5 30.5q-9 37 -3 87q13 -3 51.5 3.5t89 14t106 12.5t102 -2t77 -29.5t32.5 -69.5q1 -40 -17 -73t-46.5 -62.5t-64 -58.5t-69.5 -62q-33 -33 -40 -58.5t3.5 -43.5
t34 -27.5t49.5 -9.5z" />
    <glyph glyph-name="at" unicode="@" horiz-adv-x="657" 
d="M311 548q61 0 115 -23t94.5 -63t63.5 -93.5t23 -114.5q0 -73 -32 -134q-20 -39 -63.5 -63.5t-93.5 -24.5q-27 0 -43.5 14t-25.5 37t-11.5 53t-0.5 63q-12 -11 -25.5 -22t-30 -18.5t-35.5 -10.5t-42 1q-35 6 -49.5 29t-12 52.5t20.5 59t47 47.5q21 13 42.5 19.5t41 8.5
t35.5 0.5t26 -3.5q2 19 1.5 34.5t-3.5 26.5q44 7 77 -2q14 -4 27 -11.5t22.5 -21t14 -33t1.5 -47.5q-7 -67 -3 -110t15 -60t27 -8.5t32 44.5q5 17 7.5 35t2.5 37q0 52 -19 98t-51 80t-75.5 54t-92.5 20q-50 0 -95.5 -20t-80 -54t-55.5 -80t-21 -98t21 -98t55.5 -80t80 -53.5
t95.5 -19.5q13 -2 18.5 -7.5t7.5 -10.5q2 -6 0 -14q-2 0 -8 -1q-5 -1 -15.5 -1.5t-29.5 -0.5q-59 -1 -115 22t-99.5 63t-70 94t-26.5 115t25.5 114.5t68.5 93.5t99 63t118 23zM344 265q2 14 3 26.5t3 25.5q-10 0 -28.5 -2t-36.5 -9t-32 -20.5t-15 -36.5q-1 -25 10 -31.5
t27.5 -1.5t35 19t33.5 30z" />
    <glyph glyph-name="A" unicode="A" horiz-adv-x="440" 
d="M395 602q-2 -49 -3.5 -108.5t-2.5 -121t-0.5 -120.5t4 -106t10 -78.5t17.5 -37.5q-4 -14 -17 -26.5t-29.5 -22t-33.5 -15.5t-30 -7q-32 -2 -51.5 23t-29 69.5t-10.5 103.5t2 124q-8 1 -14.5 1.5t-14.5 0.5q-8 1 -17 1.5t-17 1.5t-16.5 1.5t-16.5 0.5q-4 1 -8 1t-8 1
q-4 0 -7.5 0.5t-7.5 0.5q-8 1 -14.5 1.5t-13.5 1.5q-2 0 -3 0.5t-3 0.5q-8 -57 -14 -111t-11.5 -99t-11 -77t-11.5 -45q-5 -15 -18 -27.5t-29.5 -22t-34 -15.5t-30.5 -6q27 169 55.5 296t57.5 220t58 155t56.5 101t53 58.5t47.5 26.5t40 6.5t31 -2.5q5 0 13 -2h2
q14 -3 28 -11t25.5 -23t19 -38t8.5 -57v-4v-2v-1v-11zM196 326q7 -1 13.5 -1.5t13.5 -0.5q2 23 3.5 47t3.5 47q1 18 4 44.5t4.5 54.5t2 56t-2.5 50t-10 35t-19 13q-29 -1 -51 -29t-39 -74t-30 -105t-22 -122q3 0 5 -1q6 -1 13 -1.5t14 -1.5q4 -1 7.5 -1t7.5 -1t7.5 -1
t8.5 -1q8 -1 16 -1.5t16 -1.5q9 -2 17.5 -2.5t16.5 -1.5z" />
    <glyph glyph-name="B" unicode="B" horiz-adv-x="513" 
d="M357 350q57 0 84.5 -25.5t31 -65t-14.5 -87t-54 -90.5q-52 -62 -128.5 -101t-183.5 -39q-33 -1 -52.5 29.5t-29 81.5t-10.5 118t2.5 139t9.5 143.5t11 132.5t6.5 106.5t-3.5 64.5q54 9 94 -2q17 -5 33 -14.5t28 -26t18.5 -41t3.5 -58.5q-3 -39 -6 -92q12 27 27.5 51.5
t34.5 42.5t41 27.5t47 6.5q36 -5 48.5 -36t5 -75.5t-32.5 -96.5t-64 -99q24 6 53 6zM312 609q-16 1 -31 -17.5t-28.5 -48t-25 -65.5t-20 -70t-14.5 -61.5t-8 -39.5v-7q29 20 54 50.5t44 64.5t32 68.5t17 62t-0.5 45t-19.5 18.5zM204 4q57 26 102 61q19 15 37 33t32 39.5
t22 46t7 51.5q-2 32 -26.5 42t-59 5t-72 -22t-64.5 -40q-1 -42 0 -79.5t3.5 -66.5t7 -47.5t11.5 -22.5z" />
    <glyph glyph-name="C" unicode="C" horiz-adv-x="390" 
d="M442 228q-55 -97 -112 -161t-109 -94t-96.5 -24t-74.5 50t-43 127t-2 208q9 105 29.5 178.5t47.5 121.5t58 74t60.5 36t54.5 7t40 -13q18 -11 31.5 -31t20 -53.5t3.5 -83.5t-18 -120l-29 22q6 38 5 68q-1 26 -8 47.5t-27 23.5q-5 0 -18 -2.5t-28.5 -26.5t-30.5 -78.5
t-24 -156.5q-8 -101 -2.5 -162.5t21 -90.5t40 -29t54 22t62.5 62.5t67 92.5z" />
    <glyph glyph-name="D" unicode="D" horiz-adv-x="373" 
d="M306 661q26 -3 41.5 -32t21.5 -74.5t3 -103.5t-15 -119t-32.5 -121.5t-48 -111t-62.5 -87t-77 -50.5q-12 -5 -24 -7.5t-21 -2.5q-33 -1 -52.5 29.5t-29 81.5t-10.5 118t2.5 139t9.5 143.5t11 132.5t6.5 106.5t-3.5 64.5q54 9 94 -2q17 -5 33 -14.5t28 -26t18.5 -41
t3.5 -58.5v-7.5t-1 -8.5q21 26 47 41t57 11zM188 386q-3 -54 -4.5 -107.5t-1.5 -100.5t2.5 -84t8.5 -58q28 29 49 83.5t35 119t20.5 131.5t6 122t-8.5 90.5t-24 36.5q-14 1 -24.5 -8.5t-18.5 -26t-14.5 -37.5t-10.5 -43q-11 -52 -15 -118z" />
    <glyph glyph-name="E" unicode="E" horiz-adv-x="402" 
d="M456 202q-56 -99 -117 -162t-118 -90t-104.5 -17t-77.5 58q-18 28 -27 76t-11 108.5t1 129t8 136t10.5 129.5t8.5 111q1 42 28 63.5t66.5 29t87 4.5t90.5 -8.5t76 -10t44 -1.5q6 -48 -1 -84q-3 -15 -9 -29.5t-17 -24.5t-27 -14.5t-39 -1.5q-37 5 -68.5 9t-57.5 6
q-4 -42 -7.5 -94t-6.5 -109q6 -2 12 -3.5t12 -3.5q4 -1 7 -1.5t7 -1.5q2 -1 6 -1q2 -1 3 -1t3 -1q3 0 6 -0.5t6 -0.5q2 -1 5 -1q4 0 5 -1h5h4h7h4h1l4 -40h-2q-1 0 -2.5 -0.5t-3.5 -0.5h-8h-5h-6h-6h-6q-4 1 -7 1t-7 1h-7q-2 1 -7 1l-15 3q-5 1 -8.5 1.5t-8.5 1.5
q-2 -47 -3.5 -93t-1 -87t2.5 -75t6 -56q7 -38 31.5 -39.5t58 23.5t72.5 71.5t76 103.5z" />
    <glyph glyph-name="F" unicode="F" horiz-adv-x="324" 
d="M328 584q-37 5 -68.5 9t-57.5 6q-3 -41 -6.5 -91.5t-6.5 -105.5q13 -3 27.5 -6t30.5 -5q5 -1 10 -1.5t10 -1.5t9.5 -1.5t9.5 -1.5q2 -1 4.5 -1t4.5 -1q6 0 9 -1q6 0 8 -1h8q2 0 3.5 -0.5t3.5 -0.5h6h10h4h2h2l4 -40h-3q-2 0 -3 -1h-5h-12h-7h-8q-5 0 -8 1h-9
q-2 0 -4.5 0.5t-4.5 0.5q-7 0 -10 1q-5 0 -10 0.5t-10 1.5t-10.5 1t-10.5 1q-14 2 -27.5 4t-26.5 4q-3 -63 -4 -123t0.5 -108.5t6.5 -80.5t15 -38q-5 -13 -18.5 -24.5t-30 -19.5t-34 -13t-30.5 -5q-36 -1 -56 36t-28 98t-6.5 138.5t6.5 158t12 156t10 132.5q1 42 28 63.5
t66.5 29t87 4.5t90.5 -8.5t76 -10t44 -1.5q6 -48 -1 -84q-3 -15 -9 -29.5t-17 -24.5t-27 -14.5t-39 -1.5z" />
    <glyph glyph-name="G" unicode="G" horiz-adv-x="467" 
d="M304 309q42 17 68.5 13.5t43 -21t23.5 -46.5t10 -62.5t3 -69t1.5 -66.5t6.5 -55t17 -35q-39 -32 -72 -43q-14 -5 -28 -4.5t-26 8t-21 25t-12 47.5q-5 35 -2 65.5t5 56.5q-19 -74 -52.5 -111t-71.5 -42.5t-76.5 19t-67.5 74t-44.5 121t-7.5 161.5q9 105 32 178t53.5 121
t65 74t67 36t59.5 7t42 -12q18 -11 31.5 -27.5t19.5 -46t3.5 -76t-17.5 -116.5l-30 22q6 31 5 57q-1 22 -7.5 39.5t-26.5 19.5q-5 0 -21.5 -2.5t-36.5 -26.5t-39.5 -78t-31.5 -156q-12 -112 -2.5 -179.5t29.5 -97.5t45.5 -25.5t44.5 36.5t26.5 88t-8.5 130z" />
    <glyph glyph-name="H" unicode="H" 
d="M567 595q-4 -46 -8 -107.5t-7.5 -127.5t-5 -130.5t-0.5 -117t6 -87.5t16 -41q-5 -13 -18.5 -24.5t-30 -19.5t-34 -13t-30.5 -5q-37 -1 -57 36.5t-28 99.5t-6.5 141t6.5 160h-4h-7h-8q-5 0 -8 1h-9q-2 0 -4.5 0.5t-5.5 0.5q-6 0 -9 1q-5 0 -10.5 0.5t-10.5 1.5t-10 1
t-10 1q-21 3 -41 6t-35 5q-8 2 -11 2q-3 -63 -4.5 -124.5t0 -110.5t6.5 -81.5t15 -38.5q-5 -13 -18 -24.5t-29.5 -19.5t-34 -13t-30.5 -5q-33 -1 -52.5 29.5t-29 81.5t-10.5 118t2.5 139t9.5 143.5t11 132.5t6.5 106.5t-3.5 64.5q54 9 94 -2q17 -5 33 -14.5t28 -26t18.5 -41
t3.5 -58.5q-3 -42 -6.5 -95t-6.5 -111q3 -1 7.5 -1.5t9.5 -2.5q15 -3 34 -6.5t39 -7.5q5 -1 10 -1.5t10 -1.5t10 -1.5t10 -1.5q2 -1 4.5 -1t4.5 -1q6 0 9 -1q5 0 8 -1h7q2 0 4 -0.5t4 -0.5h6h6q4 58 9 112t8 99t3.5 78t-3.5 48q54 9 94 -2q17 -5 33 -14.5t28 -26t18.5 -41
t3.5 -58.5z" />
    <glyph glyph-name="I" unicode="I" horiz-adv-x="250" 
d="M204 4q-5 -13 -18 -24.5t-29.5 -19.5t-34 -13t-30.5 -5q-33 -1 -52.5 29.5t-29 81.5t-10.5 118t2.5 139t9.5 143.5t11 132.5t6.5 106.5t-3.5 64.5q54 9 94 -2q17 -5 33 -14.5t28 -26t18.5 -41t3.5 -58.5q-3 -46 -7.5 -107.5t-7.5 -127.5t-5 -130.5t-0.5 -117t6.5 -87.5
t15 -41z" />
    <glyph glyph-name="J" unicode="J" horiz-adv-x="410" 
d="M543 304q-12 -2 -36 -4.5t-51 -5t-51 -5.5t-36 -6q-4 -2 -8 -2q1 -78 -1.5 -150.5t-13.5 -127.5t-31.5 -88t-54.5 -31q-20 2 -45 11l-4 2q-6 2 -12.5 4.5t-12.5 5.5q-12 6 -23.5 13t-22.5 15q-21 15 -40 36q-16 18 -33 41q-8 11 -14 22.5t-12 23.5l-1 3l-1 2v1l-1 1l-1 2
l-1 2v1v1q-4 7 -5 14q-4 13 -4 31q0 19 4 32q4 14 13 28q7 13 18 24q5 5 10 9.5t10 9.5q11 8 22 15l22 14q11 6 22.5 11.5t23.5 10.5q4 2 7 3t7 2q2 78 0 157t-7 146q-18 -1 -40.5 -3t-48.5 -4q-23 -2 -39 3.5t-26 16.5t-15.5 25.5t-7.5 29.5q-5 36 4 84q11 -4 39.5 0
t65.5 7.5t78 3.5t75 -11t57.5 -37t26.5 -74v-10q2 -61 6 -134.5t6 -149.5q12 3 36.5 5t51.5 4.5t51 4.5t36 4zM95 84q9 -18 22 -37q4 -5 7.5 -10.5t8.5 -10.5l1 -1h1q4 -5 9.5 -9t11 -4t10 5t6.5 19v3q0 2 1 3q4 35 7 81t5 97q-9 -5 -17 -9t-16 -9q-18 -10 -35 -25t-25 -29
q-5 -8 -6 -15q-2 -4 -2 -8v-8q0 -7 3 -16q1 -2 1.5 -4t1.5 -4v-1h1v-1v-1h1v-1l1 -2v-1z" />
    <glyph glyph-name="K" unicode="K" horiz-adv-x="480" 
d="M535 250q-1 -1 -1 -2q-1 -1 -1 -2t-1 -3q-2 -4 -4 -8.5t-5 -11.5q-3 -6 -6.5 -13.5t-8.5 -15.5l-10 -18t-11 -20q-12 -22 -28 -43q-4 -6 -8 -11.5t-9 -11.5t-10 -11.5t-11 -11.5q-9 -10 -26 -22q-4 -2 -7.5 -4.5t-8.5 -4.5t-10 -3.5t-10 -3.5q-6 -1 -12 -1.5t-12 0.5
q-5 1 -13 3l-3 1l-3 1q-1 1 -1.5 1t-1.5 1l-2 1h-1v1h-2l-2 2q-1 0 -1.5 0.5t-1.5 0.5l-2 2q-7 3 -9 7q-5 3 -8 6.5t-7 7.5q-12 15 -21 30q-5 8 -9 14.5t-8 14.5q-8 15 -14 30t-11 29q-6 14 -10.5 28t-9.5 27q-3 10 -5.5 19t-5.5 17q-1 -50 -1 -94.5t2.5 -79t7 -57
t12.5 -27.5q-5 -13 -18 -24.5t-29.5 -19.5t-34 -13t-30.5 -5q-33 -1 -52.5 29.5t-29 81.5t-10.5 118t2.5 139t9.5 143.5t11 132.5t6.5 106.5t-3.5 64.5q54 9 94 -2q17 -5 33 -14.5t28 -26t18.5 -41t3.5 -58.5q-2 -30 -4.5 -67t-5.5 -78q20 31 51.5 58t62.5 49.5t55.5 39
t30.5 26.5q38 -29 57 -58q17 -26 17.5 -55.5t-37.5 -58.5q-42 -31 -69.5 -50.5t-44 -34t-23.5 -28t-7 -32.5q0 -8 0.5 -15.5t1.5 -15.5v-5v-5v1q1 -10 1.5 -19t2.5 -20q2 -13 3.5 -26t3.5 -27t4.5 -27t6.5 -27q2 -7 4 -13.5t4 -13.5q2 -6 4.5 -12t5.5 -11q4 -6 5 -9l3 -3
q0 -1 1 -1v-1h1v-1v0l2 -1h1v-1q2 0 3 -1h6q8 0 19 6q5 3 10.5 6t10.5 8q5 4 9.5 8t9.5 9t9 9.5t9 9.5q8 10 15.5 19.5t14.5 18.5t13 17.5t11 16.5t9 14.5t8 12.5q3 5 5.5 9.5t4.5 8.5q1 2 3 4q1 1 1 2z" />
    <glyph glyph-name="L" unicode="L" horiz-adv-x="464" 
d="M464 2q-12 0 -38.5 -10t-61.5 -23t-75 -26t-79.5 -19t-75 -1t-61.5 27q-24 15 -37 54t-18.5 93t-4.5 119t5 132.5t9.5 133t9.5 121t5.5 96t-3.5 58.5q54 9 94 -2q17 -5 33 -14.5t28 -26t18.5 -41t3.5 -58.5q-4 -53 -9 -124.5t-8.5 -146.5t-4.5 -145.5t3 -119.5
q23 10 53 22.5t72 26.5q26 9 46 8.5t35 -7.5t25 -19.5t17 -26.5q16 -33 19 -81z" />
    <glyph glyph-name="M" unicode="M" horiz-adv-x="714" 
d="M689 546q-2 -42 -3.5 -93.5t-2.5 -104.5t-0.5 -104t4 -92t10 -68.5t17.5 -32.5q-4 -12 -17 -22.5t-29.5 -18.5t-33.5 -13t-30 -6q-38 -3 -58 26.5t-27.5 78.5t-6 113t7.5 130.5t13 130t11 113.5q1 16 -5 22.5t-16 5.5t-20.5 -7.5t-16.5 -16.5q-4 -6 -5 -9
q-13 -21 -21 -41q-10 -23 -17.5 -48.5t-13.5 -53.5q-3 -14 -6 -28.5t-5 -29.5q-6 -30 -9 -61q-2 -16 -4.5 -31.5t-4.5 -32.5q0 -5 -0.5 -8.5t-1.5 -8.5q-1 -2 -1 -4.5t-1 -4.5q0 -1 -2 -5q0 -3 -1 -4l-1 -2l-1 -1q0 -1 -0.5 -1t-0.5 -1l-2 -2q-2 -2 -4 -3q-2 -2 -6 -2h-6
l-3 1l-2 1q-1 1 -1.5 1t-1.5 1l-3 3q-1 1 -1.5 2t-1.5 2q0 1 -0.5 1.5t-0.5 1.5q-2 4 -3 5q0 2 -0.5 2.5t-0.5 2.5q-2 5 -3 9l-2 8q-2 9 -3.5 17.5t-3.5 16.5t-2.5 16.5t-2.5 16.5q-3 17 -5.5 33.5t-5.5 33.5t-5.5 33.5t-5.5 32.5q-2 8 -3.5 16.5t-3.5 16.5t-4 15.5t-4 15.5
q-2 -6 -2 -7q-2 -4 -2.5 -7.5t-2.5 -7.5l-3 -15q-2 -5 -4 -15q-6 -31 -10.5 -60.5t-8.5 -58.5t-7.5 -56t-6.5 -53q-3 -25 -6 -48t-5 -43q-3 -20 -6 -38t-5 -33q-1 -4 -1 -7t-1 -6q-1 -4 -1.5 -7t-0.5 -6q-2 -5 -2.5 -10t-1.5 -9q0 -5 -1 -7v-1q-6 -27 -21 -43.5t-33.5 -25.5
t-37 -12t-31.5 -3q-33 -1 -52.5 29.5t-29 81.5t-10.5 118t2.5 139t10 143.5t11 132.5t6.5 106.5t-3 64.5q54 9 94 -2q17 -5 33 -14.5t28 -26t18.5 -41t3.5 -58.5q-3 -30 -5 -67t-4 -77t-3.5 -82t-2.5 -83q4 14 7 27.5t7 27.5t7.5 28.5t8.5 29.5q2 8 4 15t4 15t4.5 15.5
t4.5 15.5q1 4 2 7.5t2 8.5q4 10 5 15q2 5 3 8.5t3 7.5q3 9 7 17q2 6 4 9q1 3 5 9l5 5q4 4 7 6q3 3 7 3q1 1 5 1h2h2q5 0 9 -2t6 -4q4 -3 6 -6q2 -2 4 -6t4 -10q5 -10 6 -17q2 -9 4 -17.5t4 -16.5q2 -9 3 -17.5t3 -16.5q3 -17 5.5 -33.5t4.5 -33.5q2 -9 2.5 -17.5t2.5 -16.5
t2.5 -16.5t2.5 -16.5l3 -24q1 7 2 13l2 12q2 16 4.5 31.5t4.5 30.5q2 16 5 30.5t6 29.5q4 14 7 28t7 28q5 14 9 26.5t9 24.5q5 13 10.5 24t11.5 22t13 21t15 18q17 17 32 25q1 1 1.5 1t1.5 1q10 5 19 7.5t18 4.5q2 0 3 1q37 5 66 -4q25 -8 46 -32t23 -76v-3v-2v-1v-10z
M290 530h1h-1z" />
    <glyph glyph-name="N" unicode="N" 
d="M587 557q-2 -42 -3.5 -94t-2.5 -105t-0.5 -104t4 -92t9.5 -68t17 -32q-4 -12 -17 -23t-29.5 -19t-33.5 -13t-30 -6q-27 -2 -44.5 13.5t-28 43.5t-14.5 66.5t-4 83.5t3.5 93.5t8.5 96.5q2 24 6 61.5t4 72.5t-6.5 60t-25.5 25q-28 -1 -50 -25t-39 -64t-30 -91t-22.5 -105
t-17 -108t-13.5 -99t-11.5 -77.5t-12.5 -44.5q-5 -13 -18 -24.5t-29.5 -19.5t-34 -13t-30.5 -5q-33 -1 -52.5 29.5t-29 81.5t-10.5 118t2.5 139t9.5 144t11 133t6.5 106.5t-3.5 64.5q54 9 94 -2q17 -5 33 -14.5t28 -26t18.5 -41.5t3.5 -59q-3 -39 -6.5 -89.5t-6.5 -105
t-5 -110.5t-3 -107q22 120 49 203t55.5 137.5t58 84.5t56 43.5t50 15.5t40.5 0q3 -1 6.5 -1t6.5 -1h2q13 -3 27.5 -10t26 -19.5t19 -32.5t8.5 -50v-3v-2v-1v-9v0z" />
    <glyph glyph-name="O" unicode="O" horiz-adv-x="469" 
d="M314 663q42 -6 74.5 -39.5t53.5 -86t28 -120t-3 -141.5t-35 -137t-58.5 -107.5t-74 -67.5t-82.5 -17q-56 7 -100 38.5t-72 83t-39 120.5t-2 150q9 75 30.5 147t44 133t39.5 106t17 65q6 5 32 7t53.5 -7.5t46.5 -34t12 -72.5q-1 -5 -2 -10.5t-3 -11.5q21 5 40 2zM267 47
q23 -4 46 10.5t43 43.5q-15 14 -38.5 44t-48 71t-46 89.5t-31.5 99.5q-8 -32 -12 -64q-8 -57 -5 -109t15 -91.5t31.5 -64.5t45.5 -29zM428 305q8 57 5 109t-14.5 91.5t-31.5 64.5t-45 29q-9 2 -17 0q-27 -6 -40.5 -35.5t-16.5 -73t4.5 -95t22 -101t36.5 -91t48 -64.5
q35 69 49 166z" />
    <glyph glyph-name="P" unicode="P" horiz-adv-x="374" 
d="M347 644q32 -4 45.5 -28.5t11 -61.5t-19.5 -81.5t-46 -89t-68.5 -84t-86.5 -65.5q-1 -46 -0.5 -87t2.5 -73t6.5 -52.5t12.5 -24.5q-5 -13 -18 -24t-29.5 -19.5t-34 -13.5t-30.5 -5q-33 -1 -52.5 29.5t-29 82t-10.5 118t2.5 138.5t9.5 144t11 133t6.5 106.5t-3.5 64.5
q54 9 94 -2q17 -5 33 -14.5t28 -26t18.5 -41t3.5 -58.5q-3 -39 -6 -92q12 26 27.5 50.5t34.5 42.5t41 27.5t47 6.5zM312 602q-16 1 -31 -17.5t-28.5 -47.5t-25 -65t-20 -70t-14.5 -61.5t-8 -39.5v-8q29 20 54 50.5t44 65t32 68.5t17 61.5t-0.5 45t-19.5 18.5z" />
    <glyph glyph-name="Q" unicode="Q" horiz-adv-x="510" 
d="M540 -56q1 -11 -2.5 -24.5t-12 -27.5t-22.5 -26.5t-34 -19.5q-34 -10 -58 -3.5t-41 24.5t-29.5 44.5t-23.5 55.5q-49 -35 -100 -28q-56 7 -100 38.5t-72 83t-39 120.5t-2 150q9 75 30.5 147t44 133t39.5 106t17 65q6 5 32 7t53.5 -7.5t46.5 -33.5t12 -72q-1 -5 -2 -11
t-3 -12q21 5 40 2q42 -6 74.5 -39.5t53.5 -86t28 -120t-3 -141.5q-6 -43 -17 -82.5t-26 -74.5q36 -85 60 -128t56 -39zM267 39q11 -2 20 1q-11 25 -25.5 45t-34.5 31q8 19 27 41t43 34.5t50 9.5t48 -33q11 29 19.5 61.5t13.5 67.5q8 57 5 109t-14.5 91.5t-31.5 64.5t-45 29
q-26 4 -51.5 -14.5t-47.5 -53.5t-38.5 -84t-24.5 -106t-5 -109t15 -91.5t31.5 -64.5t45.5 -29z" />
    <glyph glyph-name="R" unicode="R" horiz-adv-x="450" 
d="M520 241q-1 -1 -1 -2t-0.5 -1.5t-0.5 -2.5q-2 -3 -4 -7t-4 -9q-11 -21 -32 -55q-5 -8 -10.5 -17t-12.5 -19q-12 -18 -29 -38q-8 -9 -17 -18.5t-20 -18.5q-9 -8 -24 -16q-10 -4 -15 -5q-8 -3 -17 -3q-5 0 -9 0.5t-9 1.5q-2 1 -8 3l-1 1h-1l-1 1h-1l-1 1h-1l-1 1
q-2 1 -3.5 2t-3.5 2t-3 2t-3 2q-8 6 -11 9q-5 5 -10 9.5t-10 9.5t-9 10l-8 10q-8 10 -15 20t-13 20t-11.5 19.5t-10.5 17.5q-2 4 -3.5 7.5t-3.5 6.5q0 -39 0.5 -72.5t3 -60t7 -43t11.5 -20.5q-5 -13 -18 -24t-29.5 -19.5t-34 -13.5t-30.5 -5q-33 -1 -52.5 29.5t-29 82
t-10.5 118t2.5 138.5t9.5 144t11 133t6.5 106.5t-3.5 64.5q54 9 94 -2q17 -5 33 -14.5t28 -26t18.5 -41t3.5 -58.5q-3 -39 -6 -92q12 27 27.5 51t34.5 42t41 27.5t47 6.5q30 -4 43.5 -26t13 -56t-14.5 -75.5t-39.5 -84t-60.5 -81.5t-77 -68q4 -11 9 -24t12 -29q4 -8 8 -17
t9 -19q10 -20 22 -38q6 -10 13 -19t15 -17q2 -2 4.5 -4t4.5 -4t4 -3q1 -1 2 -1.5t2 -1.5l1 -1h1v-1h1h1v-1q1 0 2 -0.5t2 -0.5q2 -1 8 -1q9 0 18 4q5 2 9.5 5t9.5 6q9 8 17 16l16 16q8 9 15 18t14 17q6 9 12 17.5t11 16.5q11 16 18.5 29.5t13.5 23.5q2 5 4 8.5t4 6.5
q1 1 1 2t1 2q0 1 1 1zM312 595q-16 1 -31 -17.5t-28.5 -48t-25 -65.5t-20 -70t-14.5 -61.5t-8 -39.5v-7q29 20 54 50.5t44 64.5t32 68t17 62t-0.5 45.5t-19.5 18.5z" />
    <glyph glyph-name="S" unicode="S" horiz-adv-x="387" 
d="M366 79q4 -48 -17.5 -77.5t-57 -46t-79 -23.5t-84 -9t-72 -3t-42.5 -6q-15 45 -14 82q0 16 4 31t13.5 27t25.5 20t41 10q64 3 105 7.5t62.5 11.5t26 17.5t-3.5 25.5q-14 27 -40 50t-56 46t-60.5 47t-53.5 52.5t-35 62t-5.5 76t35 95t87.5 118.5l16 16t23 21
q22 17 50.5 29.5t58.5 2.5q48 -15 60.5 -52t0.5 -88q-6 -25 -11.5 -54.5t-9.5 -57.5t-6 -51.5t-2 -35.5h-41q2 30 5 61q2 26 5 55.5t6 55.5q1 8 -3 8.5t-11 -4.5t-17 -14t-20 -19q-63 -63 -79.5 -112.5t-4.5 -90.5t43.5 -76t65.5 -68t61 -67t30 -73z" />
    <glyph glyph-name="T" unicode="T" horiz-adv-x="450" 
d="M556 740q9 -54 -2 -94q-5 -17 -14.5 -33.5t-26 -28.5t-41.5 -18t-59 -3q-9 1 -17.5 1.5t-17.5 1.5q-4 -50 -7.5 -109.5t-6 -120.5t-4 -119t0.5 -105t6.5 -77.5t14.5 -36.5q-5 -13 -18 -24t-29.5 -19.5t-34 -13.5t-30.5 -5q-33 -1 -52.5 29.5t-29 82t-10.5 118.5t2.5 139
t9.5 144t11 133q-56 4 -92 0.5t-47 -20.5q-13 4 -24 17.5t-19.5 30t-13.5 34t-5 30.5q-1 44 32.5 64.5t87 25.5t119 -0.5t127.5 -13.5t113 -12.5t77 2.5z" />
    <glyph glyph-name="U" unicode="U" 
d="M585 477q-5 -69 -11.5 -145t-8.5 -141t2 -110.5t19 -55.5q-5 -13 -18 -24t-29.5 -19.5t-34 -13t-30.5 -4.5q-24 -1 -40.5 13.5t-27.5 41t-16.5 62.5t-6.5 78q-28 -99 -73.5 -154t-95 -72.5t-96 -1.5t-76.5 59q-24 32 -33 95.5t-8.5 141.5t6.5 162.5t12.5 159t9.5 131.5
t-3 79q54 9 94 -2q17 -5 33 -14.5t28 -26t18.5 -41t3.5 -58.5q-3 -38 -6 -86.5t-6 -101.5t-5 -106.5t-2.5 -102.5t1 -91t5.5 -70q5 -25 19.5 -34.5t34.5 -2t43 31.5t44.5 66t40 102t28.5 139q3 19 6 56t5 76.5t1.5 74.5t-4.5 51q54 9 94 -2q17 -5 33 -14.5t28 -26t18.5 -41
t3.5 -58.5z" />
    <glyph glyph-name="V" unicode="V" horiz-adv-x="482" 
d="M447 819q0 6 5 7t10 0.5t9 -1.5t9 -3q6 -189 -7 -330.5t-39.5 -240.5t-62.5 -157.5t-76.5 -81.5t-82.5 -13t-79 49q-28 29 -46 82t-29.5 117.5t-18 134t-12 131.5t-11.5 109.5t-16 68.5q52 18 93 14q18 -2 35 -9t31.5 -21t25 -37.5t13.5 -57.5q5 -57 11.5 -118t15 -118.5
t19 -110t24.5 -92.5q12 -29 31 -25.5t40 36t41.5 92.5t36.5 144.5t24.5 191.5t5.5 234v5z" />
    <glyph glyph-name="W" unicode="W" horiz-adv-x="747" 
d="M797 627h-4q-1 -1 -4 -1q-1 -1 -2 -1t-3 -1q-7 -2 -16 -4t-21 -4t-26 -3.5t-31 -3.5q2 -4 2 -8q4 -14 6.5 -27.5t4.5 -27.5q5 -27 7.5 -55t3.5 -55q1 -56 -3 -108q-2 -26 -6.5 -51t-9.5 -49q-6 -24 -13 -46t-16 -42q-19 -42 -39 -71q-11 -15 -21.5 -27t-20.5 -21
t-18.5 -15t-14.5 -11q-8 -4 -10 -6q-1 -1 -2 -1t-1 -1v1q-13 -8 -25 -13.5t-22 -7.5q-36 -8 -62 11t-44.5 55.5t-30.5 86t-20 103.5q-4 -14 -11.5 -36t-19.5 -48.5t-29 -54.5t-39 -52t-50 -42t-62 -24q-3 -1 -6 -1t-5 -1q-35 -5 -58.5 21.5t-39 74t-24 110.5t-13.5 132
t-7 138t-4 127.5t-5.5 102t-11.5 60.5q54 15 97 10q18 -2 36 -9t32.5 -21t23.5 -36.5t11 -55.5q2 -50 5 -117.5t8.5 -138t12.5 -136.5t16 -113q5 -20 12 -22.5t18 11.5q29 56 47 124q16 58 24 135t-7 168l6 -14q-2 5 -3 8t-3 6q52 19 96 17q18 -1 36.5 -6.5t34 -18.5
t26.5 -34.5t15 -54.5q9 -77 21 -152.5t28 -132.5q1 -1 1 -4q7 -20 22.5 -21t33.5 32q2 3 3 6.5t3 6.5q0 2 1 3q0 1 0.5 1.5t0.5 1.5q8 16 14 33.5t11 36.5q5 22 9.5 44.5t7.5 47.5q3 24 4 49t1 51t-1.5 51.5t-5.5 51.5q-3 25 -9 51q-1 5 -2 10.5t-3 10.5q-2 0 -4 1l-21 3
q-13 3 -23 7q-6 2 -12 4.5t-11 6.5q-12 6 -23 17q-5 5 -9.5 11t-7.5 14q-4 8 -6 17t0 18q0 5 1 9.5t3 9.5q5 10 12 17q6 8 17 13q5 2 10 3l10 2h10h5q1 -1 2 -1h2h1h1l1 -1h1h1h1q2 -1 2.5 -1t2.5 -1t4.5 -2t4.5 -2q7 -5 14 -11q7 -4 12 -11t9 -13l8 -12q15 -25 24 -53
q1 -1 1 -3h9q16 1 29.5 2t24.5 3t20 3.5t15 3.5q4 0 5 1q3 0 4 1h3zM602 664q4 -2 8 -3t9 -3q-3 7 -5.5 13t-5.5 11q-6 10 -12 18q-7 8 -12 11q-1 1 -2 1t-1 1h-1h-1h-1h-1q-1 1 -3 1q-1 -1 -4 -1l-2 -2q-3 -2 -3 -7q-1 -3 1 -11q3 -6 8 -11l6 -6t7 -5q3 -2 7 -3.5t8 -3.5z
" />
    <glyph glyph-name="X" unicode="X" horiz-adv-x="499" 
d="M499 84q1 -14 -7 -29.5t-20 -29.5t-26.5 -25.5t-26.5 -16.5q-29 -13 -57 5t-54.5 57t-52 94.5t-48.5 118.5q-8 -14 -14.5 -26.5t-12.5 -25.5q-9 -16 -16.5 -31.5t-15.5 -30.5t-14.5 -29t-12.5 -27q-6 -14 -11.5 -25.5t-10.5 -22.5t-9 -20.5t-7 -17.5q-4 -8 -6 -13.5
t-4 -10.5t-3 -6t-1 -2l-69 29l1 2q2 4 3 7q2 5 5 11l7 14q3 8 8 17t10 20q10 22 24 48q7 14 14.5 28t15.5 29t17 30.5t18 31.5l39 66q3 4 5.5 8t4.5 8t4 7l4 6q-21 60 -39.5 118.5t-34.5 107.5t-29.5 84.5t-24.5 49.5q46 29 87 34q18 2 36.5 -0.5t35.5 -13t32.5 -30.5
t26.5 -53l17.5 -52.5t20.5 -59.5q4 6 7 9q2 2 2.5 3.5t2.5 3.5l3 3q1 2 3 4q2 3 5 6.5t5 6.5q3 4 6 7t5 6q3 4 5.5 7t4.5 6q3 3 5.5 6t5.5 6q6 8 10 12q3 3 9 11q2 2 4.5 5t4.5 5q5 5 9 9.5t9 9.5q1 1 1.5 2t2.5 2q1 2 4 5l7 7l14 14l26 26l28 -29q-2 -3 -6 -7
q-3 -3 -8 -7.5t-10 -10.5q-3 -4 -6 -7l-7 -7q-2 -3 -7 -8q-1 -2 -3 -4q-1 -2 -2 -2.5t-2 -2.5q-4 -5 -7.5 -9.5t-8.5 -9.5q-2 -2 -4.5 -5t-4.5 -5q-2 -4 -8 -12l-5 -5t-5 -6l-9 -12q-2 -3 -4.5 -6.5t-5.5 -6.5q-2 -3 -4.5 -6.5t-4.5 -6.5q-6 -8 -10 -14l-3 -3l-2 -4
q-4 -4 -5 -7q-3 -3 -5.5 -6.5t-4.5 -7.5q-1 -1 -1.5 -2t-1.5 -2l-3 -3l-2 -4t-3 -4l-6 -9q23 -65 47.5 -131t47.5 -119.5t43 -87.5t33 -36z" />
    <glyph glyph-name="Y" unicode="Y" horiz-adv-x="476" 
d="M319 756q54 0 92 -18q16 -8 30.5 -20t23.5 -30.5t11 -43.5t-7 -59q-11 -45 -25.5 -105t-29.5 -124t-27.5 -127.5t-20.5 -115.5t-9 -87.5t8 -43.5q-7 -12 -22 -20.5t-32.5 -13.5t-35.5 -7t-31 0q-36 5 -49.5 45t-11 101t16.5 136.5t33 153.5q-25 -41 -58 -67t-77 -26
q-47 2 -69 32.5t-27 76t2 100t16.5 104t17 87t4.5 50.5q49 7 87 -1q16 -3 30.5 -10.5t25.5 -20t16 -31t1 -44.5q-10 -68 -19.5 -124.5t-11 -89.5t7 -37t34.5 33q35 51 56 111t32 113q13 62 18 123z" />
    <glyph glyph-name="Z" unicode="Z" horiz-adv-x="494" 
d="M346 144q26 9 46 8t35.5 -9.5t26 -22t18.5 -29.5q18 -37 22 -91q-14 0 -50.5 -10t-84.5 -21.5t-102.5 -20t-104 -5t-88 23t-55.5 65.5q-7 21 -5 48q2 23 13 55t40 74q21 30 58.5 66t77 71t75 66.5t52.5 53.5q29 37 26.5 59t-31 31.5t-80 6.5t-121.5 -15q-27 -5 -46 -0.5
t-31.5 15t-20 25t-11.5 31.5q-9 38 -2 90q13 -3 51.5 3.5t88.5 15t105.5 13.5t102 -2.5t77.5 -31t32 -72.5q1 -52 -22 -96t-60 -83t-82 -75t-88 -71t-77 -71t-49 -75q-9 -24 5.5 -39t49 -18.5t88 5t121.5 32.5z" />
    <glyph glyph-name="bracketleft" unicode="[" horiz-adv-x="474" 
d="M347 96q23 4 39 0.5t26.5 -12t16.5 -20.5t9 -25q6 -31 0 -73q-11 3 -33.5 -2.5t-50 -12.5t-58.5 -10t-58.5 5t-49.5 31.5t-32 70.5l1 2q-10 40 -13.5 93.5t-3 114t4 124.5t8 125t9 116t7.5 98q1 42 19 63.5t44.5 29t58.5 5t61.5 -8t53.5 -10.5t35 -2q6 -43 -1 -75
q-3 -14 -9.5 -26t-17.5 -20.5t-27 -12t-39 0.5q-18 3 -32.5 7t-26 0t-19.5 -20.5t-12 -54.5q-3 -48 -6 -104t-5.5 -113t-3.5 -112.5t0 -101.5q3 -44 13 -62t24 -21t32 3.5t36 9.5z" />
    <glyph glyph-name="backslash" unicode="\" 
d="M509 91q3 -17 -2 -34t-13 -32t-19 -26t-20 -15q-24 -11 -49.5 9t-51 61.5t-50.5 99.5t-49 123t-46 131t-42 123.5t-37 101.5t-30 65q35 27 70 27q15 0 31.5 -6.5t34 -22t34 -42.5t31.5 -68q20 -55 40 -112t39.5 -110.5t38 -101.5t35 -84.5t30.5 -59.5t25 -27z" />
    <glyph glyph-name="bracketright" unicode="]" horiz-adv-x="334" 
d="M126 56q18 -3 36 -9.5t32.5 -3.5t24.5 21t13 62q1 46 -0.5 101.5t-3.5 112.5t-5.5 113l-6.5 104q-3 38 -11 54.5t-19.5 20.5t-26.5 0t-33 -7q-23 -4 -39 -0.5t-27 12t-17 20.5t-9 26q-7 32 -1 75q11 -3 35 2t53.5 10.5t61.5 8t58.5 -5t44.5 -29t19 -63.5q2 -43 7 -98
t9.5 -116t8 -125t4 -124.5t-3.5 -114t-14 -93.5l2 -2q-10 -47 -32 -70.5t-50 -31.5t-58.5 -5t-58.5 10t-50.5 12.5t-33.5 2.5q-7 42 0 73q3 13 9 25t16.5 20.5t26.5 12t39 -0.5z" />
    <glyph glyph-name="asciicircum" unicode="^" 
d="M262 678q22 14 44 7.5t41.5 -25t37 -45t31.5 -51.5t24 -45t15 -25q-25 -18 -47 -25q-19 -6 -37.5 -2.5t-29.5 31.5q-14 36 -25.5 63.5t-22 41.5t-19 11.5t-16.5 -26.5q-5 -14 -10.5 -34t-11 -39t-9 -34.5t-4.5 -20.5q-4 -1 -17.5 1t-28 8t-26 16t-11.5 25q0 18 9.5 40
t25.5 45t38.5 44.5t48.5 38.5z" />
    <glyph glyph-name="underscore" unicode="_" horiz-adv-x="354" 
d="M58 -45q-11 29 9 48q9 8 25 15.5t44 12t68 5t97 -4.5q3 -26 -10.5 -41t-36 -22.5t-51.5 -9t-57 -1t-51.5 1t-36.5 -3.5z" />
    <glyph glyph-name="grave" unicode="`" horiz-adv-x="261" 
d="M50 763q29 25 57 18q12 -3 25 -13.5t26.5 -31.5t27 -55.5t25.5 -85.5q-26 -20 -46.5 -16.5t-36.5 21t-28 43.5t-21.5 51t-16.5 44.5t-12 24.5z" />
    <glyph glyph-name="a" unicode="a" horiz-adv-x="518" 
d="M602 325q-31 -94 -75 -168q-19 -32 -42.5 -62t-52 -53t-62 -37.5t-71.5 -14.5q-30 0 -47.5 15t-26 39.5t-10 57.5t0.5 69q-13 -12 -28 -24t-33 -20t-40 -11.5t-47 0.5q-39 7 -55 32.5t-13 58t22.5 65t52.5 52.5q24 15 48 22t45.5 9.5t39 1t28.5 -3.5q2 20 1.5 37.5
t-3.5 29.5q47 8 83 -2q15 -4 29.5 -12.5t25 -23.5t16 -36.5t3.5 -52.5q-5 -62 -5 -108.5t6.5 -72.5t20.5 -28.5t38 24.5q34 38 56.5 76.5t36.5 70.5q16 36 25 70h33zM107 227q-1 -27 11 -34.5t30 -2t38.5 21t37.5 33.5q2 15 3.5 29t3.5 28q-11 0 -31.5 -2t-41 -9.5
t-35.5 -22.5t-16 -41z" />
    <glyph glyph-name="b" unicode="b" horiz-adv-x="392" 
d="M313 371q30 -4 41 -28.5t6 -61t-24 -79t-49.5 -82.5t-71.5 -72.5t-88 -48.5q-12 -5 -23.5 -7t-21.5 -2q-30 -1 -47 29t-25.5 80t-9 115t2.5 135t8.5 139.5t9.5 128.5t5.5 102t-2.5 60q47 8 83 -2q15 -4 29.5 -12.5t25 -23.5t16 -36.5t3.5 -52.5q-3 -40 -7 -96.5t-7 -118
t-5 -123.5t-2 -114q10 28 24 60t33 58t43 41.5t53 11.5zM173 69q25 17 46.5 43.5t38 55.5t27.5 58.5t15 53.5t0 39t-17 16q-11 1 -22 -10t-21 -30t-19 -43t-16 -49q-18 -59 -32 -134z" />
    <glyph glyph-name="c" unicode="c" horiz-adv-x="378" 
d="M249 362q15 -5 26.5 -13.5t16.5 -23t2.5 -36t-14.5 -51.5q-12 0 -19 5q-4 2 -6 5q5 16 4 29q-1 11 -6.5 20t-22.5 10q-4 0 -14 -1t-21 -11.5t-22.5 -33.5t-18.5 -67q-10 -63 5 -84t44.5 -14t68 34.5t74.5 61.5t64.5 67t37.5 52l20 -16q-42 -79 -96 -136t-109 -91
t-106.5 -44t-89 4.5t-56 54.5t-7.5 106q11 67 43.5 104.5t71 55t75 18.5t55.5 -5z" />
    <glyph glyph-name="d" unicode="d" horiz-adv-x="495" 
d="M559 278q-2 -6 -9.5 -25t-21 -44.5t-34 -52.5t-49.5 -49.5t-67.5 -36t-86.5 -10.5q-30 2 -46 16t-22.5 36t-6 50t5.5 58q-9 -16 -25.5 -33t-37.5 -30t-45.5 -19t-49.5 0q-38 9 -52.5 35.5t-10 58.5t26 63.5t54.5 49.5q25 13 49 19t45.5 6.5t39 -1.5t28.5 -5q5 42 9 89.5
t6.5 94t4 89.5t1.5 76.5v55t-1 25.5q49 1 86 -13q16 -6 30 -16.5t24.5 -26.5t15 -38.5t0.5 -53.5q-6 -44 -14 -100.5t-15 -114.5t-11.5 -112t-1.5 -92t14.5 -54.5t35.5 -0.5q30 20 50 41.5t33 39.5q15 21 24 42zM108 246q-2 -27 12.5 -34t35.5 3.5t43.5 36t36.5 62.5
q-11 0 -31.5 -0.5t-41 -7t-37 -20.5t-18.5 -40z" />
    <glyph glyph-name="e" unicode="e" horiz-adv-x="388" 
d="M459 289q-42 -79 -95.5 -138t-108.5 -96t-105.5 -49.5t-86.5 2t-53.5 57.5t-4.5 118q11 67 43.5 105t71 55t75 18t55.5 -5q15 -5 28 -16.5t19.5 -28.5t3.5 -39t-19 -49q-11 -18 -28 -29t-35 -16.5t-36 -7t-31 -1.5q-5 -45 3 -66t25.5 -24.5t41.5 8.5t50.5 32.5t53.5 47
t50 53t39.5 49t23.5 36.5zM232 301q-5 0 -14.5 -1t-21 -10.5t-22.5 -31.5t-18 -64q24 -2 41.5 2.5t29 12t18.5 16.5t11 17q3 5 5 15t0.5 19.5t-8 17t-21.5 7.5z" />
    <glyph glyph-name="f" unicode="f" horiz-adv-x="319" 
d="M408 289l-182 39q21 -126 19.5 -215t-16.5 -149t-39 -94t-47.5 -52t-42 -23t-22.5 -5h-1q-23 0 -38 40.5t-24 106.5t-12 150.5t-3 173t2.5 174t6 153.5t6 111t3.5 48q3 34 6 60.5t8.5 45t15 28t25.5 8.5q2 0 22.5 -3.5t47.5 -21.5q32 -21 52 -56q27 -42 36 -105
q16 -108 -26 -188q-9 -17 -19 -30.5t-21 -24.5q-3 -70 -5 -143t-2.5 -140.5t0 -127t3.5 -102.5q15 34 24 70.5t13.5 71.5t5.5 69t0 64q-3 70 -17 136q31 -5 70 -13t74 -16q40 -10 82 -21zM167 508q13 19 23 44t15 57q0 2 0.5 16.5t-1.5 34t-7.5 42t-18.5 40.5
q-2 -44 -5.5 -104.5t-5.5 -129.5z" />
    <glyph glyph-name="g" unicode="g" horiz-adv-x="493" 
d="M616 318q-30 -16 -63 -34q-29 -16 -66 -37.5t-79 -47.5q5 -63 10 -133t7 -138.5t0.5 -131t-10.5 -110.5t-26.5 -76.5t-46.5 -28.5q-9 -1 -37.5 2t-68.5 27t-87 77.5t-92 153.5q-17 34 -6.5 72t40.5 77t74.5 78t95.5 75q-1 11 -1.5 23t-0.5 23q-15 -15 -36.5 -31
t-46.5 -28.5t-52.5 -19.5t-53.5 -2q-40 7 -56.5 33t-13.5 59t23.5 66.5t53.5 54.5q24 15 49.5 23t49 10.5t42.5 1t30 -3.5q-2 14 -3 27q-2 11 -2.5 22.5t-2.5 17.5q42 11 76 1q15 -4 29 -13t26 -24t20 -38t11 -56q1 -13 1.5 -26t1.5 -27q42 24 78 43.5t64 33.5q33 17 60 30z
M109 221q-1 -28 15.5 -34.5t40 0.5t49 24t42.5 35v1l-2 20q-1 8 -1.5 17.5t-0.5 16.5q-11 0 -34.5 -2.5t-47.5 -11t-42 -24t-19 -42.5zM263 -192q2 63 1.5 139.5t-2.5 150.5q-38 -30 -70 -60.5t-52.5 -60t-27 -57t5.5 -51.5q19 -36 43.5 -64.5t46 -40.5t37.5 -3.5t18 47.5z
" />
    <glyph glyph-name="h" unicode="h" horiz-adv-x="479" 
d="M563 282q-26 -67 -54 -118q-12 -22 -26 -42.5t-29 -35.5t-31.5 -22.5t-32.5 -4.5q-22 4 -34.5 30t-20.5 62t-13 76.5t-11 75.5t-15.5 57.5t-26.5 22.5t-25 -28.5t-14.5 -71.5t-13.5 -93t-22.5 -92.5t-41.5 -70.5t-70 -27q-30 -1 -47 29t-25.5 80t-9 115t2.5 135
t8.5 139.5t9.5 128.5t5.5 102t-2.5 60q47 8 83 -2q15 -4 29.5 -12.5t25 -23t16 -36t3.5 -52.5q-3 -33 -6 -77.5t-6 -94t-5.5 -101t-3.5 -99.5q7 33 17 65.5t23.5 57.5t31 40.5t39.5 15.5q29 0 45.5 -25.5t26 -64.5t14 -85t9 -86t11.5 -68.5t22 -32.5q9 -3 20.5 3.5
t23.5 18.5t24.5 28.5t23.5 34.5q26 41 53 95z" />
    <glyph glyph-name="i" unicode="i" horiz-adv-x="265" 
d="M374 304q-3 -5 -13 -29.5t-27.5 -57.5t-41 -70t-54 -68t-67 -51t-79.5 -18q-40 1 -60 26.5t-27 63.5t-4.5 83.5t7.5 86.5t9.5 72t1.5 42q41 6 73 -1q13 -3 25.5 -9t21.5 -16.5t13 -25.5t1 -37q-8 -57 -11 -100t2 -67.5t19 -30t40 12.5q26 19 52 53t46 68q24 40 44 84z
M97 442q-31 0 -53 22t-22 53q0 32 22 53.5t53 21.5t53 -21.5t22 -53.5q0 -31 -22 -53t-53 -22z" />
    <glyph glyph-name="j" unicode="j" horiz-adv-x="291" 
d="M413 308q-26 -14 -59 -32q-28 -16 -65 -39.5t-80 -53.5q5 -62 10.5 -134t8 -143.5t1.5 -137t-9.5 -116t-26 -81t-47.5 -30.5q-6 -1 -21 -0.5t-36.5 7t-48.5 22t-57 44.5t-61.5 74.5t-61.5 112.5q-17 34 -6.5 73.5t40.5 81t74 84t95 83.5q-1 11 -2.5 42t-3.5 64
q-3 38 -5 83q-1 14 -3 27q-2 11 -3 22.5t-3 17.5q42 10 76 0q15 -4 29 -13t26 -24t20 -38t11 -55q0 -6 0.5 -11.5t0.5 -11.5q42 28 78 49t62 35q31 17 55 28zM66 -232q2 66 1.5 146.5t-2.5 156.5q-38 -33 -69.5 -66t-52 -64t-27.5 -59.5t5 -52.5q19 -36 43.5 -64.5t46 -40.5
t37.5 -3.5t18 47.5zM100 444q-31 0 -53 22t-22 53t22 53t53 22q32 0 53.5 -22t21.5 -53t-21.5 -53t-53.5 -22z" />
    <glyph glyph-name="k" unicode="k" horiz-adv-x="415" 
d="M517 327q-21 -81 -54 -144q-14 -27 -31.5 -53t-38.5 -46t-46 -32.5t-54 -12.5q-26 -2 -44 9.5t-29 25.5q-13 17 -22 39q-7 -24 -17 -45t-24.5 -36.5t-33 -24t-42.5 -7.5q-30 -1 -47 29t-25 80t-9 115t2 135t8.5 139.5t10 128.5t6 102t-3.5 60q47 8 83 -2
q15 -4 29.5 -12.5t25.5 -23t16.5 -36t3.5 -52.5q-3 -33 -6 -77.5t-6 -94t-5.5 -101t-3.5 -99.5q7 33 17 65.5t23.5 57.5t30.5 40.5t39 15.5q41 0 58 -28.5t11.5 -71t-33.5 -93t-77 -94.5q0 -3 1 -20.5t7.5 -37.5t20.5 -36.5t41 -16.5q24 0 46 11.5t40.5 30t34.5 42t29 48.5
q30 58 51 132zM269 383q-11 0 -18 -12t-12 -32.5t-8.5 -47t-7.5 -56.5q20 27 35 54t22 48t5 33.5t-16 12.5z" />
    <glyph glyph-name="l" unicode="l" horiz-adv-x="289" 
d="M121 8q-8 -4 -16.5 -5.5t-16.5 -1.5q-3 -1 -10 -1h-1q-23 0 -38 27.5t-23.5 73t-12 103t-3 118.5t3 120t5.5 106.5t6 78t3 35.5q3 33 6 59.5t8.5 45t15 28t26.5 8.5q1 0 22 -3t47 -21q16 -11 29 -25t24 -31q26 -45 35 -105q8 -54 2 -101.5t-28 -87.5q-10 -18 -21.5 -33
t-22.5 -26q-2 -55 -3 -105t0 -91q1 -23 3.5 -36.5t7.5 -19t14 -2.5t24 13q35 22 62 50.5t46 54.5q22 30 38 60l28 -11q-1 -5 -12 -23.5t-29.5 -45.5t-43 -58t-53 -60t-59.5 -53t-63 -35zM163 417q14 20 25.5 46t16.5 61q0 2 0.5 16.5t-1.5 34t-7.5 42t-18.5 40.5
q-4 -50 -8 -112t-7 -128z" />
    <glyph glyph-name="m" unicode="m" horiz-adv-x="688" 
d="M779 274q-43 -85 -94 -152q-22 -29 -47.5 -56t-54 -48.5t-59.5 -34.5t-64 -13q-28 0 -41 19t-15.5 49.5t2 69t11.5 78.5t13 77.5t6 66t-8.5 43.5t-30.5 11q-1 0 -1 -1q-15 -5 -28 -18q-7 -8 -13.5 -17t-11.5 -20q-10 -21 -18 -52q-3 -14 -6 -29t-6 -32q-1 -5 -1.5 -8.5
t-1.5 -8.5q-1 -2 -1 -4.5t-1 -4.5q-2 -4 -2 -6q-2 -4 -4 -7l-5 -5q-2 -1 -2.5 -1t-2.5 -1q-1 0 -1.5 -0.5t-2.5 -0.5h-2q-7 0 -11 3q-2 1 -5 4q-3 4 -5 8t-2 6q-2 5 -2.5 9.5t-1.5 9.5q-2 9 -2.5 18t-2.5 18q-1 9 -1.5 17.5t-1.5 17.5q-2 8 -2.5 16.5t-2.5 16.5t-4 15.5
t-5 12.5q-1 2 -3 4l-3 -3q-2 -3 -3.5 -6t-3.5 -6q-3 -6 -6 -13l-6 -14q-2 -7 -4.5 -14t-4.5 -14q-9 -29 -15 -54t-10.5 -46t-8.5 -36q-2 -10 -3 -17t-2 -11q-6 -26 -17 -42t-23.5 -24t-25.5 -11t-23 -3q-36 -1 -53 23.5t-20.5 64t1 88.5t11 97t10.5 89.5t-2 66.5q44 9 77 -2
q14 -5 27.5 -14t23 -25t14.5 -39.5t3 -57.5q0 -7 -0.5 -13.5t-1.5 -12.5q2 5 4 10.5t4 11.5q7 17 15 32q2 4 4.5 8t6.5 9l4 4l4 4q5 5 13 9q4 2 9 2q2 0 3 1h1h1l2 -1h3q10 -2 16 -6q7 -6 11 -11q2 -3 3 -5.5t3 -5.5q2 -5 3.5 -9.5t3.5 -9.5t2.5 -9.5t1.5 -9.5
q2 -10 2.5 -19t1.5 -18t1.5 -18t0.5 -17v-3q3 11 5.5 20.5t5.5 18.5q9 30 23 55q7 13 15 23t17 18t18 12.5t17 7.5q1 0 2.5 0.5t2.5 0.5q3 0 16.5 2t32 1t39 -6.5t37 -19.5t26 -39t6.5 -65q-5 -62 -10.5 -108.5t-3.5 -72t15.5 -27.5t47.5 26q35 28 64 61t50 61q25 33 45 65z
M233 346v-1v1z" />
    <glyph glyph-name="n" unicode="n" horiz-adv-x="332" 
d="M436 306q-13 -25 -24 -47q-10 -19 -20.5 -39t-17.5 -31q-6 -11 -13.5 -23.5t-17.5 -24.5q-5 -6 -10.5 -12t-12.5 -11q-2 -2 -3.5 -2.5t-3.5 -2.5l-4 -2l-4 -2q-1 0 -5 -2h-3q0 -1 -1 -1h-4h-1h-1h-1h-3q-7 0 -12 4q-7 3 -10 10q-4 5 -5 11t-3 11q-2 11 -2 20.5v18.5
q1 19 2 37t3 36q1 9 1.5 18t0.5 17v16t-1 14q-1 4 -5 6q-3 2 -8 -3l-6 -6q-4 -5 -7.5 -11.5t-6.5 -12.5q-4 -7 -7 -13.5t-6 -13.5q-5 -14 -10 -26.5t-9 -25.5q-8 -25 -14 -46l-10 -35q-2 -4 -3 -9.5t-3 -10.5q-2 -6 -3 -13q-7 -26 -17.5 -42t-22.5 -24t-24.5 -11t-22.5 -3
q-36 -1 -53 22t-20.5 60.5t1 84.5t11 94.5t10.5 89.5t-2 69q44 9 77 -2q14 -5 27.5 -15t23 -28t14.5 -44t3 -63v-5q7 13 18 28.5t23 29t25 22.5t26 9q16 0 23 -13t9 -31.5t0 -40.5t-4 -40q0 -5 -0.5 -11t-1.5 -11v-6q-2 -10 -2.5 -19.5t-1.5 -18.5v-16.5t1 -15.5q2 -8 3 -10
l1 -1q1 0 1 -0.5t1 -0.5h1l3 1h2h1q0 1 2 1q1 1 2 1t3 1q1 1 2 1.5t3 2.5q5 3 9 7.5t9 9.5q17 20 30 44q6 11 16 29.5t20 36.5q11 21 24 45z" />
    <glyph glyph-name="o" unicode="o" horiz-adv-x="390" 
d="M512 322q-2 -1 -4 -3t-4.5 -3.5t-5.5 -3.5q-2 -2 -4 -2.5t-4 -2.5l-9 -6q-2 -2 -5 -3t-5 -3l-6 -4l-6 -4t-6.5 -3.5t-6.5 -3.5t-6.5 -4t-7.5 -4q-2 -1 -3.5 -2t-3.5 -2l-4 -2q-1 -1 -2 -1t-2 -1q-4 -1 -8 -4q-4 -1 -8 -4q-8 -4 -17 -7.5t-18 -7.5t-18 -7t-19 -6
q-5 -1 -8.5 -2t-7.5 -2q-3 -18 -9 -36q-12 -39 -34.5 -69.5t-50.5 -50t-59.5 -26t-61.5 3.5q-30 9 -52 32.5t-33.5 55t-12 70t11.5 77.5t34.5 69.5t50.5 50t59.5 25.5t61.5 -3q42 -14 67.5 -53.5t29.5 -90.5h3q8 2 17 3.5t17 3.5t16.5 4.5t16.5 4.5q6 2 8 3q6 2 8 2l4 2
q1 0 2 0.5t2 0.5q2 1 3.5 1.5t3.5 1.5l15 6q6 1 13 5q8 4 12 5q8 4 11 5q2 2 4.5 2.5t4.5 2.5l9 3q3 2 6 3.5l5 2.5q3 1 4 2zM248 322q-19 6 -43 -12q2 -4 8 -10q8 -8 17 -12q5 -4 11 -5l6 -2t7 -1q12 -3 24 -3q-3 17 -10.5 29t-19.5 16zM174 90q12 -4 26 2t27 19t24 32.5
t19 43.5q3 8 4.5 16t3.5 16q-8 -1 -15.5 -1.5t-15.5 0.5q-5 1 -10.5 1t-10.5 2q-5 1 -10.5 2t-10.5 3q-10 3 -18.5 8t-16.5 10q-6 4 -8 6q-3 -6 -5.5 -12.5t-4.5 -12.5q-8 -24 -10 -46.5t1 -41t11 -31t20 -16.5z" />
    <glyph glyph-name="p" unicode="p" horiz-adv-x="370" 
d="M307 372q27 -4 38.5 -25t9.5 -53t-17 -70.5t-40 -77t-59.5 -72t-75.5 -55.5q-2 -53 -3 -102.5t0.5 -88.5t5.5 -64.5t12 -30.5q-7 -24 -18.5 -38.5t-25 -22t-27.5 -10t-25 -2.5q-30 -1 -47 29t-25.5 80t-9 115t2.5 135t8.5 139.5t9.5 128.5t5.5 102t-2.5 60q47 8 83 -2
q15 -4 29.5 -12.5t25 -23.5t16 -36.5t3.5 -52.5q-1 -13 -2 -28.5t-2 -32.5q11 23 24.5 44.5t29.5 37t35 24t41 5.5zM165 72v-2q25 17 47 43t38.5 55.5t27.5 59t15 53.5t0 39.5t-17 16.5q-11 1 -22 -10t-21 -30t-19 -43t-16 -49q-18 -59 -32 -134z" />
    <glyph glyph-name="q" unicode="q" horiz-adv-x="450" 
d="M374 161q19 -98 19.5 -173.5t-9.5 -130t-27 -89.5t-32 -53q-15 -19 -34 -27q-6 -3 -11.5 -4t-9.5 -2q-6 -1 -11 -1.5t-10 -0.5q-25 -1 -41 19.5t-25 56t-12 83.5t-2 102t5 111.5t9 112.5q-17 -16 -39.5 -26t-52.5 -12q-39 -2 -60.5 19.5t-26 53.5t7.5 68t39 63
q19 18 39.5 30t41 19t38 10t30.5 4q0 34 -3 49q47 9 83 -2q15 -5 29.5 -14t25 -25.5t16 -40.5t2.5 -57q-2 -29 -4.5 -63t-5.5 -72l143 176l13 -13zM104 243q4 -20 13 -26.5t21 -4t25.5 13t26.5 24.5q2 26 4 49t3 43q-14 -4 -32 -12t-33 -20t-23.5 -28.5t-4.5 -38.5z
M329 -150q19 50 25 98t4.5 89.5t-7 72.5t-9.5 46q-3 -41 -5.5 -82.5t-4.5 -81.5t-3 -76t0 -66z" />
    <glyph glyph-name="r" unicode="r" horiz-adv-x="430" 
d="M497 291q11 2 19 1q7 -1 11.5 -4t1.5 -12q-2 -6 -11 -40t-25.5 -81.5t-40.5 -101t-55.5 -98.5t-72 -73.5t-88.5 -26.5q-33 1 -50.5 23.5t-24 58.5t-4 81t8.5 92t13 92.5t11 81.5q-55 1 -87 8.5t-48.5 19.5t-20 27t-3 32.5t2 35.5t-3.5 35q40 15 71 15q13 0 25.5 -3.5
t21.5 -12.5t14 -24.5t3 -39.5q-1 -10 5.5 -15.5t15 -7.5t15.5 -2.5l7 -0.5q16 1 41.5 -1.5t48 -16t36.5 -41.5t8 -77q-5 -41 -10.5 -81t-8.5 -74.5t-3.5 -61t5 -40t16.5 -12t31 22.5q29 32 52.5 85.5t39.5 106.5q18 62 33 130z" />
    <glyph glyph-name="s" unicode="s" horiz-adv-x="362" 
d="M429 252q-45 22 -86 33q-36 10 -74.5 10t-65.5 -24q23 -35 48.5 -70.5t46.5 -70t36 -67t18 -61.5t-8.5 -53.5t-42.5 -42.5q-9 -5 -22 -10.5t-29 -9.5t-33.5 -5.5t-35.5 2.5h-1q-3 0 -4 1q-5 1 -11 2.5t-14 4.5q-14 4 -35 17q-9 6 -19 14.5t-19 19.5q-19 24 -28 54
q0 2 -0.5 4t-0.5 4l-1 2v2l-1 4l-1 3v4q-1 3 -1 8q-3 15 -3 32t1.5 33.5t6.5 33.5q9 31 26 63q1 1 1 1.5t1 1.5q-17 22 -33 48q-26 40 -36 72t-8.5 57.5t11.5 44.5t24 33q33 32 93 46q-16 -39 2 -88t51 -102q21 11 42 16t42 5t41 -3.5t38 -8.5q41 -12 80 -36zM117 -26
q6 -7 13 -12l14 -10l6 -3q14 -5 25.5 -4t16.5 18q7 22 2.5 44t-17 45.5t-31 48.5t-39.5 53q-8 -17 -13 -39q-6 -29 -5 -55q1 -6 1.5 -12.5t1.5 -13.5q2 -6 3 -12.5t3 -11.5q3 -11 8 -19.5t11 -16.5z" />
    <glyph glyph-name="t" unicode="t" horiz-adv-x="460" 
d="M523 306q-40 -102 -90 -179q-21 -33 -47 -64.5t-55.5 -55t-63 -37t-70.5 -10.5q-25 1 -41 25t-25.5 65t-13 95t-3.5 114t2.5 123.5t6.5 123.5q-9 -1 -17 -1t-16 -1h-16t-16 -1h-47h-14h-4l-3 31h1q2 0 4 1q2 0 5 0.5t8 1.5q8 2 20 3.5t27 3.5q7 1 15 2l16 2q8 2 17 2.5
t18 1.5q2 1 4 1q3 41 5 78t3 67t0.5 51t-3.5 32q47 8 83 -2q15 -4 29.5 -12.5t25 -23.5t16 -36.5t3.5 -52.5q-1 -18 -2 -40.5t-3 -47.5q7 0 14 0.5t14 0.5q8 1 15.5 1h15.5t14.5 0.5t12.5 0.5h21h18l2 -31q-1 0 -4 -1t-13 -3q-9 -2 -21 -3q-6 -1 -12.5 -2t-13.5 -2l-16 -2
l-16 -2t-16.5 -2t-16.5 -2q-2 -41 -3.5 -85t-2.5 -89v-125.5t5 -100t19.5 -55.5t43.5 9q12 10 25.5 25.5t27 35t26.5 41t25 42.5q27 49 55 105z" />
    <glyph glyph-name="u" unicode="u" horiz-adv-x="490" 
d="M539 328q11 2 19 2q7 0 11.5 -3t2.5 -12q-2 -6 -8 -35t-18.5 -68.5t-31.5 -83.5t-47 -81.5t-65.5 -62t-85.5 -24.5q-28 0 -46.5 13.5t-29 36.5t-14.5 53.5t-4 64.5q-22 -34 -53.5 -55.5t-76.5 -19.5q-40 1 -60 26.5t-27 63.5t-4.5 83.5t7.5 86.5t9.5 72t1.5 42
q41 6 73 -1q13 -3 25.5 -9t21.5 -16.5t13 -25.5t1 -37q-8 -57 -12.5 -103t-1 -72t16.5 -29t40 24q26 27 37.5 66.5t15.5 76.5q4 43 1 89q48 8 84 -2q15 -4 29.5 -12.5t25 -23.5t16 -36.5t3.5 -52.5q-5 -62 -10 -110.5t-3.5 -76t13 -29t39.5 31.5t45.5 76t28.5 81
q12 45 18 92z" />
    <glyph glyph-name="v" unicode="v" horiz-adv-x="411" 
d="M508 306q-6 -30 -24 -50q-15 -17 -45 -27.5t-81 3.5q-5 -22 -11.5 -42t-14.5 -40q-17 -40 -39 -71q-11 -16 -23 -28.5t-24 -23.5q-19 -16 -39 -28q-32 -20 -78 -28q-39 -6 -63 16t-38 61t-19 88t-6.5 97.5t-1 89.5t-1.5 63q46 15 83 11q16 -2 31.5 -8.5t28 -19.5
t21.5 -33.5t11 -51.5q5 -60 10.5 -111t15.5 -82q17 15 32 33q21 26 35 55q16 32 28 71q0 2 2 8q-9 5 -18 10.5t-19 11.5q-8 6 -16.5 13t-16.5 16q-17 16 -27 42q-2 6 -3 13l-2 14q0 13 5 30q10 28 38 44q27 17 60 13q16 -3 31 -12q7 -5 12.5 -11t10.5 -12q5 -7 8 -13.5
t6 -14.5q2 -7 3 -13.5t3 -13.5q1 -7 1 -13.5v-12.5v-13q-1 -5 -1 -12q-3 -32 -9 -62q28 -12 53 -12q21 0 41 12t30 50zM283 310q6 -5 12 -9l12 -8q2 9 3.5 18.5t3.5 19.5q0 2 0.5 5t0.5 5q1 3 1 10q1 9 0 18q0 20 -8 31q-6 12 -18 15t-27 -4q-14 -8 -20 -20q-5 -11 -2 -27
q4 -15 17 -29q5 -8 11.5 -14t13.5 -11z" />
    <glyph glyph-name="w" unicode="w" horiz-adv-x="680" 
d="M765 326q-9 -34 -29 -58q-17 -20 -48 -34t-80 -3q-3 -20 -7 -38.5t-10 -36.5t-13 -34.5t-16 -31.5q-17 -29 -38 -50q-8 -8 -15.5 -15t-15.5 -12q-28 -20 -67 -31q-31 -7 -52.5 6.5t-36.5 40.5t-24 63.5t-15 74.5q-11 -26 -26.5 -51t-37 -46t-50 -35.5t-65.5 -18.5
q-39 -5 -61 18t-32 62.5t-12 89.5t-2 98t-1.5 89t-10.5 63q46 14 83 9q16 -2 31.5 -9t28 -20.5t20.5 -34.5t10 -52q3 -62 4 -111.5t5.5 -76.5t16 -26.5t35.5 36.5q22 33 34.5 61.5t19.5 50.5q-2 25 -4 44.5t-4 32.5q39 17 72 16q14 0 28.5 -4.5t26.5 -15t21 -28.5t14 -45
q8 -54 17 -98.5t20 -70.5q13 11 27 32q15 21 27 51q5 14 10 30.5t8 33.5q1 2 1 4t1 4q-8 4 -17 8t-17 9q-19 10 -32 22q-8 7 -14.5 15.5t-11.5 19.5t-7 25q-1 11 2 26q8 27 31 42q23 18 51 15q15 0 28 -8q7 -3 12.5 -8t10.5 -10q5 -6 8 -11.5t6 -11.5q2 -6 3.5 -12t3.5 -12
q3 -12 3 -23q1 -4 1 -12v-10q0 -28 -3 -55q32 -6 58 -1q23 5 44.5 21t31.5 54zM562 332v8.5t-1 8.5q-2 8 -4 14.5t-5 11.5q-8 10 -18 12q-12 2 -24 -6q-11 -6 -16 -19q-3 -12 1 -24q4 -11 16 -25l12 -10t13 -10q5 -3 11 -6.5t11 -6.5q1 9 2 17.5t1 17.5q1 2 1 4.5v4.5v8z
" />
    <glyph glyph-name="x" unicode="x" horiz-adv-x="423" 
d="M423 419q-2 -1 -5 -4q-5 -5 -14 -11q-9 -8 -21 -18q-12 -11 -27 -24q-8 -7 -15.5 -14.5l-15.5 -15.5l-34 -34q-8 -9 -17 -18t-18 -19l-2 -2q18 -44 27.5 -71t16.5 -43.5t14.5 -23.5t20.5 -10q8 -29 6.5 -47t-8 -29t-17.5 -16.5t-22 -8.5q-23 -4 -43.5 4.5t-38 26
t-33 42.5t-29.5 54q-7 -8 -13.5 -16.5t-12.5 -16.5q-15 -18 -27 -33q-6 -8 -11.5 -15.5t-10.5 -13.5q-5 -7 -9.5 -12t-7.5 -10q-4 -5 -6.5 -9t-4.5 -6q-3 -3 -4 -5l-41 32q1 2 4 5q2 2 5 5.5t7 8.5t8.5 10t9.5 12q5 6 11 13t13 15t13.5 16.5t14.5 16.5l16 18t17 19q3 3 9 11
q-14 33 -26 66.5t-24 64t-24 55.5t-24 41q32 27 65 31q14 1 30 -2t32.5 -14.5t33 -33t31.5 -55.5q5 -10 8.5 -19.5t7.5 -18.5q7 7 14 13.5t13 13.5q10 8 19 16.5t17 16.5q9 8 17 15l16 14t15.5 13t13.5 11q15 12 23 17q5 4 9 6.5t6 4.5q3 2 5 4z" />
    <glyph glyph-name="y" unicode="y" horiz-adv-x="517" 
d="M616 308l-172 -218q23 -96 30 -168t3 -123.5t-15.5 -85.5t-24.5 -54t-26 -29t-19 -11q-10 -5 -19 -6.5t-17 -2.5q-28 -2 -46 23t-29.5 69.5t-17 102.5t-7 122.5t-1 129.5t1.5 123q-10 -29 -24.5 -56t-34.5 -48t-46.5 -33.5t-59.5 -11.5q-40 2 -60 27t-27 63.5t-4.5 83.5
t7.5 86.5t9.5 72.5t1.5 42q41 6 73 -1q13 -3 25.5 -9t21.5 -16.5t13 -25.5t1 -37q-8 -57 -12.5 -103t-1 -72t16.5 -29t40 24q18 18 29 43t17 51t8 51.5t2 45.5l-2 40q47 12 84 3q16 -4 30.5 -12.5t26 -23.5t18 -38.5t6.5 -56.5q0 -29 -0.5 -63.5t-0.5 -72.5q42 45 75.5 84.5
t57.5 68.5q27 34 49 63zM424 -218q16 51 19 99.5t-1.5 89.5t-13 72t-14.5 46v-82.5t1 -81.5t3.5 -76.5t5.5 -66.5z" />
    <glyph glyph-name="z" unicode="z" horiz-adv-x="384" 
d="M221 155q24 -12 49.5 -32t46.5 -49.5t34 -69.5t12 -93q-1 -67 -19.5 -107.5t-44.5 -63t-54 -31t-47 -9.5q-11 0 -34 2.5t-54.5 22t-68 62t-73.5 121.5q-13 27 -5 56t32 58.5t60 58.5t78 57l-17 17l-6 6l-5 28q32 12 62 30q25 15 51 36.5t40 48.5q16 29 10.5 39t-27.5 7
t-58 -17t-81 -34q-35 -15 -54.5 -3t-30.5 33q-12 25 -16 61q9 0 34 11t57.5 24.5t69.5 25.5t69.5 15t57.5 -8t34 -44q13 -47 -1.5 -84t-42.5 -66t-63 -49.5t-62 -33.5q6 -2 14 -4t18 -6q54 32 108.5 59t98.5 47q51 24 99 43l7 -22q-43 -19 -90 -42q-40 -20 -89.5 -45.5
t-98.5 -55.5zM206 -141q12 40 10.5 77.5t-10.5 69.5t-23.5 59t-28.5 47q-33 -23 -60 -46.5t-44.5 -46.5t-23.5 -45t4 -41q16 -31 41.5 -58.5t52.5 -41.5t49.5 -10t32.5 36z" />
    <glyph glyph-name="braceleft" unicode="{" horiz-adv-x="448" 
d="M373 150q6 -81 10 -134t10.5 -84t18.5 -44t36 -16q-51 -37 -91 -41q-17 -2 -34 2.5t-31 20.5t-23.5 44.5t-11.5 74.5q-5 82 -16.5 137t-27 90t-32.5 53t-31.5 27.5t-25 14t-13.5 10.5q-1 1 -1 3t1 3q3 6 13.5 10.5t25 14t31.5 28t32.5 53.5t27 89.5t16.5 136.5
q2 46 11.5 74.5t23.5 44t31 20.5t34 3q40 -4 91 -41q-24 -3 -36 -16t-18.5 -44t-10.5 -84t-10 -134q-5 -65 -32 -102t-63 -56q36 -18 63 -55.5t32 -102.5z" />
    <glyph glyph-name="bar" unicode="|" 
d="M364 -57q-4 -15 -14.5 -28.5t-24 -23t-28 -15.5t-24.5 -6q-27 -1 -42.5 31.5t-22.5 87t-7.5 126t2.5 149t8 155t9 144t5.5 116.5t-2.5 73q42 11 75 -2q14 -6 27 -17.5t22.5 -31t14.5 -48.5t3 -70q-3 -55 -6.5 -121.5t-6.5 -135t-4.5 -134.5t-0.5 -118.5t5 -88t12 -42.5z
" />
    <glyph glyph-name="braceright" unicode="}" horiz-adv-x="338" 
d="M75 140q5 65 32.5 102.5t62.5 55.5q-35 19 -62.5 56t-32.5 102q-6 81 -9.5 134t-10.5 84t-19 44t-36 16q51 37 91 41q17 2 34 -3t31 -20.5t23.5 -44t12.5 -74.5q4 -82 16 -136.5t27 -89.5t32 -53.5t31.5 -28t25 -14t13.5 -10.5q1 -1 1 -3t-1 -3q-3 -6 -13.5 -10.5
t-25 -14t-31.5 -27.5t-32 -53t-27 -90t-16 -137q-3 -46 -12.5 -74.5t-23.5 -44.5t-31 -20.5t-34 -2.5q-40 4 -91 41q24 3 36 16t19 44t10.5 84t9.5 134z" />
    <glyph glyph-name="asciitilde" unicode="~" 
d="M139 237q-2 47 8 73.5t28.5 38t43 12t51.5 -5t54.5 -13t51 -11t42 -0.5t26.5 19q-10 -64 -29.5 -89t-45.5 -28t-56 8.5t-60.5 20t-60 6.5t-53.5 -31z" />
    <glyph glyph-name="section" unicode="&#xa7;" 
d="M564 368q20 -21 18.5 -41.5t-15.5 -38.5t-35.5 -34.5t-40.5 -29.5q16 -27 13 -69.5t-34 -108.5q-3 -6 -9 -16.5t-14 -23.5q-14 -21 -36.5 -43t-54.5 -33q-51 -17 -90.5 -6t-55.5 44q-9 18 -11.5 40t-2.5 41q0 22 3 44l30 5q-1 -24 2 -43q2 -17 7.5 -31.5t16.5 -16.5
q10 -2 20 1.5t19 11t17 17.5t14 21q36 67 34 105t-28 57.5t-68 26t-86 10.5t-82 10t-56 25q-21 21 -19 41t16 38.5t35.5 34.5t40.5 30q-17 26 -14 69t34 108q4 7 9.5 17.5t14.5 23.5q14 21 36.5 42.5t54.5 32.5q51 17 90.5 6t55.5 -44q8 -19 11 -40t3 -40q0 -22 -4 -44
l-29 -6q1 24 -2 43q-2 17 -7.5 31.5t-16.5 16.5t-21 -1.5t-19 -10.5t-17 -17.5t-14 -21.5q-36 -67 -34 -105t28 -57.5t68 -26t86 -10t82.5 -9.5t56.5 -25zM151 306q21 -6 50 -8.5t61.5 -4t65.5 -4t63 -8.5q3 3 9 6q44 27 61 43t-10 24q-21 6 -50 8.5t-61 4t-65 4t-63 8.5
l-9 -6q-45 -27 -61.5 -43.5t9.5 -23.5z" />
    <glyph glyph-name="plusminus" unicode="&#xb1;" 
d="M104 -28q-17 36 16 60q14 10 41 18.5t71.5 12t109.5 2t155 -10.5q8 -24 -3 -39.5t-34.5 -25t-56.5 -14t-69.5 -5.5t-74 0t-69 2.5t-54.5 1.5t-32 -2zM505 381q8 -23 -2.5 -38t-34 -25t-57 -14.5t-70.5 -6.5q-1 -57 -3 -102t3 -59q-23 -12 -42 -1q-8 5 -16.5 15.5
t-15 29.5t-12 47.5t-7.5 69.5q-29 0 -55 1t-47.5 1.5t-37 0t-22.5 -2.5q-12 23 -1 42q5 8 15.5 16t29.5 15t47 12t69 8q1 35 3.5 76t7.5 89q23 8 38 -2.5t24.5 -34t14 -57t6.5 -70.5q35 -1 76 -3t89 -7z" />
    </font>
</defs>
</svg>
