<svg xmlns="http://www.w3.org/2000/svg" width="47" height="75" viewBox="0 0 47 75">
    <g fill="none" fill-rule="evenodd">
        <g>
            <g>
                <path fill="#FFF" d="M37.314 30.999c1.86-1.305 3.448-3.06 4.57-5.223 3.717-7.168.961-16.014-6.153-19.757-7.114-3.744-15.894-.97-19.611 6.198-1.122 2.164-1.645 4.48-1.645 6.763-1.411-.032-2.792.71-3.487 2.05-.974 1.878-.245 4.217 1.62 5.198l6.354 3.344c.966.93 2.067 1.747 3.31 2.402 1.243.654 2.539 1.097 3.848 1.364l6.355 3.345c1.864.982 4.186.247 5.16-1.63.694-1.34.51-2.906-.321-4.054" transform="translate(-817 -7763) translate(818 7764)"/>
                <path stroke="#25293C" stroke-width="1.976" d="M37.314 30.999c1.86-1.305 3.448-3.06 4.57-5.223 3.717-7.168.961-16.014-6.153-19.757-7.114-3.744-15.894-.97-19.611 6.198-1.122 2.164-1.645 4.48-1.645 6.763-1.411-.032-2.792.71-3.487 2.05-.974 1.878-.245 4.217 1.62 5.198l6.354 3.344c.966.93 2.067 1.747 3.31 2.402 1.243.654 2.539 1.097 3.848 1.364l6.355 3.345c1.864.982 4.186.247 5.16-1.63.694-1.34.51-2.906-.321-4.054z" transform="translate(-817 -7763) translate(818 7764)"/>
                <path stroke="#353128" stroke-linecap="round" stroke-linejoin="round" stroke-width="1.976" d="M23.318 9.82L21.028 12.953M28.861 21.309L25.635 23.447M27.622 7.69L27.945 11.568M29.002 15.421L25.559 17.185M34.045 21.104L37.854 21.75M32.702 16.928L35.109 13.884M39.824 18.521L39.097 14.699M34.256 27.676L33.053 23.979M21.329 20.339L19.221 17.078" transform="translate(-817 -7763) translate(818 7764)"/>
                <path fill="#FFF" d="M42.14 7.946c1.367-2.633.355-5.885-2.26-7.26-2.615-1.377-5.842-.356-7.208 2.278-1.366 2.633-.353 5.885 2.261 7.26 2.615 1.377 5.842.357 7.208-2.278" transform="translate(-817 -7763) translate(818 7764)"/>
                <path stroke="#25293C" stroke-width="1.976" d="M42.14 7.946c1.367-2.633.355-5.885-2.26-7.26-2.615-1.377-5.842-.356-7.208 2.278-1.366 2.633-.353 5.885 2.261 7.26 2.615 1.377 5.842.357 7.208-2.278zM39.603 2.565S41.177-.202 45 .012" transform="translate(-817 -7763) translate(818 7764)"/>
                <path fill="#FFF" d="M32.377 39.911l-28.68 32.34C2.2 73.94-.453 72.543.068 70.34l9.966-42.187L32.377 39.91z" transform="translate(-817 -7763) translate(818 7764)"/>
                <path stroke="#25293C" stroke-width="1.976" d="M32.377 39.911l-28.68 32.34C2.2 73.94-.453 72.543.068 70.34l9.966-42.187L32.377 39.91z" transform="translate(-817 -7763) translate(818 7764)"/>
                <path fill="#F4F1E8" d="M33.304 40.401L9.351 27.795c-1.028-.54-1.43-1.83-.893-2.865l.184-.355c.538-1.035 1.817-1.44 2.845-.9l23.954 12.607c1.027.54 1.428 1.83.892 2.865l-.184.355c-.537 1.035-1.817 1.44-2.845.9" transform="translate(-817 -7763) translate(818 7764)"/>
                <path stroke="#25293C" stroke-width="1.976" d="M33.304 40.401L9.351 27.795c-1.028-.54-1.43-1.83-.893-2.865l.184-.355c.538-1.035 1.817-1.44 2.845-.9l23.954 12.607c1.027.54 1.428 1.83.892 2.865l-.184.355c-.537 1.035-1.817 1.44-2.845.9z" transform="translate(-817 -7763) translate(818 7764)"/>
            </g>
        </g>
    </g>
</svg>
