<svg xmlns="http://www.w3.org/2000/svg" width="50" height="55" viewBox="0 0 50 55">
    <g fill="none" fill-rule="evenodd">
        <g>
            <g>
                <path stroke="#25293C" stroke-width="1.976" d="M16.396 16.395h0c1.29-1.29.722-2.832-.569-4.123L5.66.966C4.37-.323 2.258-.323.968.967s-1.29 3.403 0 4.693l11.304 10.166c1.291 1.291 2.833 1.86 4.124.57z" transform="translate(-1112 -3359) translate(1113 3360)"/>
                <path stroke="#25293C" stroke-width="1.976" d="M26.217 8.562c9.551 0 17.294 7.743 17.294 17.294 0 4.759-8.678 1.41-17.294 1.426-8.677.017-17.294 3.366-17.294-1.426 0-9.551 7.743-17.294 17.294-17.294z" transform="translate(-1112 -3359) translate(1113 3360)"/>
                <path stroke="#25293C" stroke-width="1.976" d="M8.923 25.856c0-9.551 7.743-17.294 17.294-17.294s17.294 7.743 17.294 17.294c0 .16-34.588 0-34.588 0zM13.102 52.032h26.223c1.656 0 3.03-1.278 3.152-2.93l1.395-19.056H8.562L9.959 49.11c.12 1.647 1.492 2.922 3.144 2.922z" transform="translate(-1112 -3359) translate(1113 3360)"/>
                <path fill="#F4F1E8" d="M7.576 30.045h37.282c1.195 0 2.173-.978 2.173-2.172v-.348c0-1.194-.978-2.172-2.173-2.172H7.576c-1.195 0-2.173.978-2.173 2.172v.348c0 1.194.978 2.172 2.173 2.172" transform="translate(-1112 -3359) translate(1113 3360)"/>
                <path stroke="#25293C" stroke-width="1.976" d="M7.576 30.045h37.282c1.195 0 2.173-.978 2.173-2.172v-.348c0-1.194-.978-2.172-2.173-2.172H7.576c-1.195 0-2.173.978-2.173 2.172v.348c0 1.194.978 2.172 2.173 2.172z" transform="translate(-1112 -3359) translate(1113 3360)"/>
                <g stroke="#25293C" stroke-width="1.976">
                    <path d="M0 0v10.566c0 1.226 1.003 2.229 2.229 2.229 1.227 0 2.23-1.003 2.23-2.229V0" transform="translate(-1112 -3359) translate(1113 3360) translate(34.34 24.836)"/>
                    <path d="M0 0v10.566c0 1.226 1.003 2.229 2.229 2.229 1.227 0 2.23-1.003 2.23-2.229V0" transform="translate(-1112 -3359) translate(1113 3360) translate(34.34 24.836)"/>
                </g>
                <g>
                    <path fill="#F4F1E8" d="M0 0v6.901c0 1.226 1.003 2.23 2.229 2.23 1.227 0 2.229-1.004 2.229-2.23V0" transform="translate(-1112 -3359) translate(1113 3360) translate(26.552 24.836)"/>
                    <path stroke="#25293C" stroke-width="1.976" d="M0 0v6.901c0 1.226 1.003 2.23 2.229 2.23 1.227 0 2.229-1.004 2.229-2.23V0" transform="translate(-1112 -3359) translate(1113 3360) translate(26.552 24.836)"/>
                </g>
            </g>
        </g>
    </g>
</svg>
