<svg xmlns="http://www.w3.org/2000/svg" width="16.801" height="16.801" viewBox="0 0 16.801 16.801">
  <path id="phone-call-svgrepo-com" d="M10.827,4.258h-.02a.428.428,0,0,0-.025.855h0a3.843,3.843,0,0,1,3.6,3.833c0,.106,0,.211-.013.315V9.245a.428.428,0,0,0,.855,0h0c.005-.082.008-.177.008-.273a4.726,4.726,0,0,0-4.39-4.714h-.015Zm-.042-2.215c.256.013,6.27.392,6.27,7.2a.428.428,0,0,0,.855,0h0c.009-.136.014-.294.014-.453a7.622,7.622,0,0,0-7.072-7.6h-.041a.432.432,0,0,0-.432.4h0c0,.006,0,.014,0,.021a.428.428,0,0,0,.405.427h0Zm7.225,11.63a2.952,2.952,0,0,0-.373-1.039l.007.014a.429.429,0,0,0-.3-.2h0l-5.113-.812a.406.406,0,0,0-.067-.005.428.428,0,0,0-.3.124h0a3.514,3.514,0,0,0-.853,1.4L11,13.175A9.055,9.055,0,0,1,6.02,8.229L6,8.17a3.523,3.523,0,0,0,1.421-.86h0a.427.427,0,0,0,.125-.3.387.387,0,0,0-.006-.068v0L6.727,1.827a.429.429,0,0,0-.2-.3h0a2.829,2.829,0,0,0-.983-.357l-.017,0a2.8,2.8,0,0,0-.6-.063H4.885A3.643,3.643,0,0,0,1.267,4.726h0A13.194,13.194,0,0,0,14.445,17.906h0a3.646,3.646,0,0,0,3.622-3.621h0v-.039a2.89,2.89,0,0,0-.06-.592l0,.019Zm-3.565,3.378A12.337,12.337,0,0,1,2.122,4.728h0A2.787,2.787,0,0,1,4.889,1.961h.032a2.112,2.112,0,0,1,.452.049l-.014,0a2.265,2.265,0,0,1,.572.171l-.014-.006L6.66,6.848a2.732,2.732,0,0,1-1.287.6l-.017,0A.428.428,0,0,0,5,7.87a.421.421,0,0,0,.025.143v0A9.915,9.915,0,0,0,11.1,14.126l.069.021a.42.42,0,0,0,.14.023.427.427,0,0,0,.42-.351v0a2.749,2.749,0,0,1,.6-1.308l0,0L17,13.256a2.3,2.3,0,0,1,.169.567l0,.014a2.057,2.057,0,0,1,.042.416v.029a2.787,2.787,0,0,1-2.766,2.77h0Z" transform="translate(-1.267 -1.105)"/>
</svg>
