<svg xmlns="http://www.w3.org/2000/svg" width="16" height="16" viewBox="0 0 16 16">
    <g fill="none" fill-rule="evenodd">
        <g fill="#25293C">
            <g>
                <g>
                    <g>
                        <path d="M15.046 4.436c-.035-.802-.165-1.353-.35-1.83-.192-.508-.487-.961-.873-1.339-.378-.383-.834-.68-1.335-.87-.48-.185-1.029-.314-1.83-.35C9.85.01 9.592 0 7.544 0S5.24.009 4.435.044c-.801.036-1.352.165-1.83.35-.507.192-.96.487-1.338.873-.383.378-.68.834-.87 1.335-.185.48-.314 1.029-.35 1.83C.01 5.24 0 5.498 0 7.546s.009 2.305.044 3.11c.036.801.165 1.352.351 1.83.192.507.49.96.872 1.338.378.383.834.68 1.335.87.48.185 1.029.315 1.83.35.805.035 1.062.044 3.11.044 2.049 0 2.305-.009 3.11-.044.801-.035 1.352-.165 1.83-.35 1.014-.393 1.815-1.194 2.207-2.208.186-.48.316-1.029.351-1.83.035-.805.044-1.062.044-3.11s-.003-2.305-.038-3.11zm-1.359 6.16c-.032.736-.156 1.134-.26 1.4-.253.657-.774 1.178-1.432 1.432-.265.103-.666.227-1.4.26-.795.035-1.034.043-3.047.043s-2.255-.008-3.048-.044c-.736-.032-1.134-.156-1.4-.26-.327-.12-.624-.312-.866-.562-.25-.245-.442-.54-.563-.867-.103-.265-.227-.666-.26-1.4-.035-.795-.043-1.034-.043-3.047s.008-2.255.044-3.048c.032-.736.156-1.134.26-1.4.12-.327.312-.624.565-.866.245-.25.54-.442.867-.563.265-.103.666-.227 1.4-.26.795-.035 1.034-.044 3.047-.044 2.016 0 2.255.01 3.047.045.737.032 1.135.156 1.4.26.328.12.625.311.867.562.25.245.442.54.563.867.103.265.227.666.26 1.4.035.795.043 1.034.043 3.047s-.008 2.249-.044 3.044z" transform="translate(-1204 -8247) translate(0 8011) translate(1169.802 235.73) translate(34.485 .682)"/>
                        <path d="M7.545 3.67c-2.14 0-3.876 1.735-3.876 3.875 0 2.14 1.736 3.876 3.876 3.876 2.14 0 3.876-1.736 3.876-3.876 0-2.14-1.736-3.876-3.876-3.876zm0 6.39c-1.388 0-2.514-1.127-2.514-2.515 0-1.388 1.126-2.514 2.514-2.514s2.514 1.126 2.514 2.514-1.126 2.514-2.514 2.514zM12.479 3.516c0 .5-.405.905-.905.905s-.905-.405-.905-.905.405-.905.905-.905.905.405.905.905z" transform="translate(-1204 -8247) translate(0 8011) translate(1169.802 235.73) translate(34.485 .682)"/>
                    </g>
                </g>
            </g>
        </g>
    </g>
</svg>
