<svg xmlns="http://www.w3.org/2000/svg" width="125" height="120" viewBox="0 0 125 120">
    <g fill="none" fill-rule="evenodd">
        <g fill="#000">
            <g>
                <path d="M121.352 71c-1.931.046-3.836-.445-5.777-.272-.306.027-.853-.075-.912-.246-.577-1.7-2.506-1.497-3.588-2.597-.958-.974-1.042-1.745-.582-2.729 1.785-3.808 3.353-7.702 4.81-11.644.384-1.038.76-2.084 1.041-3.152.27-1.024 1.149-1.351 1.916-1.634.833-.307.931.7 1.374 1.132 2.077 2.022 2.138 4.761 2.744 7.31.783 3.287 1.487 6.595 2.376 9.854.74 2.714-.13 4.412-3.402 3.977M100.212 17.69c.059 1.398-.837 2.373-2.404 2.556-2.182.256-4.363.552-6.553.701-2 .137-3.049-1.496-4.047-2.773-.686-.879-.218-2.14.49-3.19 2.365-3.515 4.123-7.351 5.732-11.258.28-.68.574-1.308 1.455-1.421.952-.123 1.144.597 1.584 1.166 1.317 1.699 1.601 3.748 2.108 5.726.715 2.798 1.393 5.604 1.635 8.494M95.631 48.972c-.001 1.766.479 3.151-1.18 3.95-.395.188-.743.445-1.155.373-1.855-.323-3.666-.22-5.36.62-1.324.658-2.069.144-3.052-.823-1.888-1.858-1.934-2.606-.745-4.906 1.9-3.677 4.054-7.253 5.236-11.272.171-.583.36-1.176.646-1.708.593-1.101 1.665-1.121 2.484-.19 1.726 1.966 1.922 4.437 2.288 6.83.386 2.522.603 5.072.838 7.126M96.907 114.136c-1.875-.212-3.38-1.236-4.693-2.469-.475-.446-.424-1.355-.077-2.056 1.164-2.352 1.618-4.964 2.832-7.34.574-1.123.814-2.685 1.235-4.034.296-.95.772-1.999 1.913-2.086 1.137-.087 1.738.956 2.219 1.766 1.227 2.075 1.638 4.46 2.124 6.778.53 2.535.871 5.113 1.245 7.68.149 1.025-.539 1.674-.439 2.603.054.495-.575.567-1.171.4-1.71-.48-3.456-.837-5.188-1.242M71.02 31.818c.005 1.655-.859 2.428-2.673 2.1-1.484-.269-2.961-.118-4.41-.108-1.789.014-2.966-.773-4.18-1.834-1.12-.979-1.176-2.113-.535-3.274 2.045-3.7 3.722-7.548 5.035-11.567.512-1.565 1.572-1.66 2.677-.421.757.848 1.312 1.8 1.652 2.855 1.3 4.02 2.028 8.159 2.434 12.249M41.464 46.67c-1.278-.06-2.376-.02-3.486-.208-2.644-.447-3.482-1.233-3.05-3.836.551-3.328.938-6.703 1.993-9.933.222-.681.46-1.394.865-1.97.711-1.012 1.606-1.316 2.634-.309.88.861 1.67 1.776 2.206 2.895 1.511 3.155 2.688 6.433 3.745 9.765.561 1.771-.683 3.401-2.42 3.465-.886.032-1.772.093-2.487.132M68.881 99.614c-1.149.242-2.233.587-3.443.348-1.783-.351-3.783-3.015-3.219-4.674 1.254-3.684 2.009-7.5 3.147-11.211.259-.846.44-1.793 1.561-1.93 1.127-.137 1.58.74 1.967 1.515 1.939 3.89 3.214 8.033 4.49 12.167.376 1.222-.054 2.188-1.3 2.89-1.043.59-2.267.179-3.203.895M45.26 12.663c.181 3.222-1.255 4.678-4.49 5.305-1.696.329-2.904-.401-4.21-.956-1.523-.646-2.093-1.8-1.647-3.62.574-2.343 1.589-4.492 2.435-6.713.692-1.816 1.364-3.633 1.962-5.482.476-1.47 1.077-1.417 2.292-.744 2.103 1.165 2.525 3.107 2.84 5.116.368 2.35.553 4.728.817 7.094M29.606 84.408c-.01-1.205.382-2.315.966-3.326 1.478-2.56 2.534-5.305 3.637-8.03.895-2.212 1.09-2.038 2.947-.855 1.933 1.232 2.418 3.061 3.052 4.898.688 1.993 1.277 4.028 1.768 6.079.447 1.868.069 2.252-1.72 2.867-1.653.568-3.173 1.47-4.993 1.59-.869.056-1.261-.218-1.521-.969-.236-.677-.749-.63-1.3-.4-1.491.618-2.84-.264-2.836-1.854M41.532 119.998c-2.047-.222-3.824-.32-5.566-.625-2.864-.5-4.08-2.619-3.467-5.503.612-2.874 1.187-5.746 2.323-8.474.923-2.216 2.006-2.504 3.61-.79.704.754 1.301 1.683 1.696 2.637 1.351 3.272 2.78 6.525 3.474 10.028.378 1.899-.37 2.774-2.07 2.727M14.832 38.42c-.478-.446.222-1.615-.855-1.912-.377-.104-.613.521-.475.885.258.675.02 1.67.948 1.934.453.13.382-.396.382-.908m4.2 2.962c.056 2.5-.54 2.936-2.678 2.895-1.216-.023-2.441.378-3.662.59-1.904.33-4.79-1.34-5.297-2.958-.167-.535-.15-.936.062-1.416 1.477-3.358 2.92-6.73 4.409-10.082.65-1.463 1.403-1.58 2.619-.486 2.734 2.463 3.302 5.932 4.234 9.22.24.845.25 1.756.313 2.237M0 71.861c.386-3.843 1.622-7.461 2.94-11.039.563-1.528 1.311-1.556 2.618-.535 1.166.91 1.81 2.138 2.026 3.522.513 3.285.933 6.585 1.327 9.887.166 1.393-.712 2.106-2.112 2.394-2.233.46-4.01-.424-5.746-1.564C.099 73.9.116 72.846 0 71.861M64.45 70.352c-.604-.05-1.299-.317-1.56-.089-.92.804-2.04.252-3.051.62-1.08.393-2.725-2.265-2.595-3.592.193-1.966 1.893-3.21 2.168-5.185.272-1.949 1.051-3.829 1.64-5.73.172-.554.539-.957 1.196-.991.703-.038 1.075.28 1.396.914 1.775 3.521 2.719 7.346 4.074 11.02.748 2.028-1.115 2.743-3.268 3.033M95.989 78.807c.465 2.063-1.81 3.185-3.313 2.805-.7-.177-1.267-.41-2.114-.01-1.042.493-2.618 1.093-2.887-1.102-.022-.174-.473-.264-.665-.452-1.192-1.172-1.23-2.852-.137-4.184.244-.298.492-.628.613-.986.824-2.44 2.637-4.49 2.818-7.188.046-.698.306-1.35 1.103-1.476.8-.126 1.188.447 1.514 1.065.155.295.415.551.504.86 1.022 3.516 1.935 7.06 2.564 10.668" transform="translate(-988 -6952) translate(988 6952)"/>
            </g>
        </g>
    </g>
</svg>
