<svg xmlns="http://www.w3.org/2000/svg" width="96" height="78" viewBox="0 0 96 78">
    <g fill="none" fill-rule="evenodd">
        <g fill="#25293C">
            <g>
                <path d="M12.828 16.167c.001-.92.136-1.618-.72-1.87-.895-.266-1.064.429-1.362 1-.148.281-.274.678-.71.625-.453-.054-.601-.394-.666-.805-.04-.252-.006-.586-.323-.673-.369-.102-.515.23-.7.463-1.575 1.972-2.822 4.147-3.839 6.449-.629 1.424-1.19 2.893-1.358 4.462-.234 2.175 1.404 3.383 3.401 2.52 1.18-.509 2.13-1.337 2.833-2.395 2.021-3.041 2.967-6.47 3.444-9.776m3.425-.915c-.32 5.645-1.782 10.945-4.784 15.77-.795 1.278-1.92 2.245-3.129 3.107-.746.532-1.607.255-2.426.3-.252.014-.985-.708-.82.377.01.068-.415.008-.617-.085-1.34-.617-2.443-1.471-3.115-2.855-1.917-3.948-1.712-7.883-.002-11.818 1.5-3.452 3.412-6.608 6.274-9.131C9.081 9.641 10.89 9.375 12.614 9c1.455-.317 2.922 1.068 3.3 2.718.266 1.157.31 2.34.339 3.534M85.853 10.094c-.853 2.808-.761 5.361.54 7.793.964 1.801 2.254 1.884 3.568.295.96-1.161 1.526-2.534 1.973-3.96.67-2.143-.092-3.619-2.174-4.388-.838-.31-1.321-.11-1.482.739-.138.735-.412 1.418-1.215 1.383-.898-.039-.83-.934-1.004-1.57-.009-.034-.042-.063-.206-.292M82.4 15.908c-.065-4.511 1.134-8.138 3.473-11.396.513-.715 1.089-1.381 1.848-1.842 1.066-.648 2.242-.296 2.568.878.182.66.503.8 1.077.899 2.583.446 4.541 2.338 4.622 4.927.169 5.364-1.49 10.209-5.131 14.142-2.645 2.856-5.545 2.177-7.209-1.393-.986-2.119-1.246-4.384-1.248-6.215M56.708 25.09c.053.913.26 1.966 1.222 2.43.884.424 1.582-.355 2.145-.941 2.32-2.411 3.762-5.32 4.568-8.553.21-.84-.31-1.251-1.04-1.498-.692-.235-1.145-.11-1.426.639-.18.478-.436 1.057-1.103.962-.581-.083-.463-.697-.63-1.085-.084-.197-.016-.497-.303-.544-.254-.042-.433.177-.53.364-1.322 2.573-2.62 5.155-2.903 8.226m11.683-8.743c-.192 4.118-1.74 7.836-3.421 11.512-.997 2.179-2.26 4.11-4.463 5.3-1.939 1.047-3.74.694-4.814-1.286-1.69-3.114-2.353-6.417-1.308-9.913.91-3.052 2.303-5.848 4.408-8.262.322-.369.732-.747 1.134-.635.874.243 1.208-.381 1.515-.87.832-1.324 2.041-1.641 3.43-1.401 1.536.265 2.768 1.012 3.292 2.614.315.96.368 1.94.227 2.94M83.545 37.947c-.338.338-.354.691-.419 1.024-.073.377-.342.59-.647.408-.75-.448-1.113.093-1.527.517-1.115 1.146-2.12 2.41-2.867 3.805-.81 1.511-1.667 3.072-1.448 4.927.136 1.154.242 2.42 1.513 2.802 1.302.39 2.286-.466 3.14-1.381.051-.055.085-.127.133-.185 1.861-2.261 2.692-5.003 3.359-7.763.36-1.49-.038-2.99-1.237-4.154m4.922 1.192c-.08 3.553-1.251 6.804-2.57 10.052-.911 2.242-2.13 4.224-3.686 6.035-1.362 1.585-4.153 2.218-6.069 1.086-.717-.424-.844-1.362-1.628-1.68.91-.996-.464-1.412-.546-2.17-.333-3.073-.238-6.027 1.196-8.911 1.403-2.825 3.239-5.203 5.737-7.08.278-.209.351-.44.382-.765.043-.45.102-.919.272-1.33.976-2.368 2.61-2.754 4.514-1.054 1.726 1.54 2.461 3.52 2.398 5.817M23.213 41.326c.046.584-.047 1.253.544 1.545.551.272.992-.22 1.404-.538.575-.444 1.048-1 1.431-1.615 1.525-2.449 2.53-5.095 2.971-7.959.112-.726.126-1.626-.584-1.763-.75-.145-1.828-.32-2.287.81-.128.314-.288.628-.49.898-1.918 2.558-2.358 5.622-2.989 8.622m9.294-9.094c-.25 3.95-1.407 7.923-3.53 11.609-.266.46-.588.886-.854 1.345-1.077 1.858-2.778 2.592-4.813 2.642-.703.017-1.095-.543-1.412-1.132-1.148-2.134-1.44-4.41-.971-6.751.929-4.637 2.657-8.96 5.264-12.915.465-.707 1.064-1.288 1.677-1.843.693-.627 1.283-.39 1.517.532.08.316.058.683.496.804 1.748.483 1.981 2.075 2.415 3.473.186.603.13 1.282.21 2.236M39.863 59.725c.93-.832 1.249-1.838 1.746-2.76.914-1.694 1.328-3.494 1.58-5.361.041-.311.024-.644-.342-.753-.358-.107-.544.192-.703.432-.145.217-.155.613-.336.702-.61.298-.197 1.808-1.503 1.269-.167-.069-.322.235-.123.383.867.645.314 1.352.077 2.004-.463 1.28-.796 2.555-.396 4.084m-.903 5.126c1.246-.586.735-1.193.014-1.47-1.648-.632-1.752-2.158-2.054-3.482-.193-.846-.03-1.837.19-2.707 1-3.937 2.798-7.526 4.963-10.932.356-.561.982-.927 1.34-1.527.154-.26.453-.427.788-.313.332.113.428.349.392.715-.068.683.227 1.198.726 1.692 1.375 1.36 1.247 3.187 1.101 4.854-.37 4.26-1.797 8.206-4.108 11.794-.704 1.093-1.686 1.932-3.352 1.376M36.383 8.838c-.09-.311-.178-.622-.307-1.076-.99 1.261-1.657 2.568-2.061 3.991-.268.943.463 1.758 1.442 1.706.987-.052 1.717-.603 2.245-1.385 1.395-2.065 2.017-4.446 2.375-6.852.106-.717.021-1.687-.422-2.479-.383-.683.392-2.405 1.192-2.664 1.002-.324 1.477.404 1.818 1.14.673 1.446.438 3.017.3 4.507-.312 3.369-1.32 6.553-3.048 9.479-.77 1.302-1.652 2.5-3.29 2.736-2.793.403-3.938.107-4.663-2.714-.956-3.718 1.07-8.876 4.222-11.106.35-.248.702-.456 1.155-.28.518.202.443.68.46 1.071.066 1.457-.583 2.7-1.132 3.967l-.286-.041M55.696 77.99c-.893.077-1.547-.275-1.587-1.134-.069-1.516-.404-2.93.035-4.589.738-2.793 1.873-5.305 3.434-7.64.689-1.032.408-2.177.843-3.208.362-.858.789-1.641 1.46-2.283.434-.415.897-.727 1.516-.369.581.336.824.706.86 1.515.228 5.062-1.677 9.575-3.374 14.151-.376 1.012-.975 1.883-1.6 2.75-.42.581-.926.877-1.587.807" transform="translate(-1233 -1061) translate(1233 1061)"/>
            </g>
        </g>
    </g>
</svg>
