<svg xmlns="http://www.w3.org/2000/svg" width="126" height="102" viewBox="0 0 126 102">
    <g fill="none" fill-rule="evenodd">
        <g fill="#000">
            <g>
                <path d="M16.836 21.142c.002-1.203.18-2.116-.944-2.447-1.175-.346-1.397.562-1.788 1.308-.194.368-.36.888-.933.819-.593-.071-.788-.517-.873-1.054-.052-.329-.008-.766-.424-.88-.484-.133-.675.3-.92.605-2.065 2.58-3.702 5.424-5.037 8.434-.825 1.863-1.562 3.783-1.783 5.836-.306 2.844 1.843 4.423 4.465 3.296 1.549-.667 2.795-1.75 3.717-3.133 2.653-3.978 3.895-8.461 4.52-12.784m4.496-1.197c-.421 7.382-2.338 14.312-6.279 20.622-1.043 1.671-2.52 2.935-4.106 4.063-.98.696-2.11.334-3.185.393-.33.018-1.293-.926-1.076.493.013.088-.544.01-.81-.111-1.758-.807-3.206-1.924-4.088-3.734-2.517-5.163-2.247-10.309-.003-15.455 1.97-4.513 4.478-8.64 8.235-11.94 1.899-1.668 4.273-2.016 6.535-2.506 1.911-.415 3.837 1.396 4.333 3.553.348 1.514.405 3.06.444 4.622M112.682 13.2c-1.12 3.672-1 7.01.71 10.191 1.264 2.355 2.958 2.464 4.682.386 1.26-1.519 2.003-3.314 2.59-5.18.88-2.802-.122-4.732-2.854-5.737-1.1-.405-1.734-.144-1.945.966-.181.96-.54 1.854-1.595 1.81-1.179-.052-1.09-1.223-1.317-2.055-.012-.044-.056-.081-.271-.382m-4.532 7.604c-.085-5.9 1.489-10.643 4.558-14.902.673-.935 1.429-1.807 2.426-2.41 1.399-.847 2.942-.387 3.37 1.148.24.864.66 1.046 1.414 1.176 3.39.583 5.96 3.058 6.067 6.443.22 7.014-1.956 13.35-6.736 18.494-3.471 3.735-7.277 2.846-9.46-1.822-1.296-2.77-1.636-5.733-1.64-8.127M74.429 32.81c.07 1.194.34 2.57 1.604 3.177 1.16.556 2.076-.463 2.816-1.23 3.044-3.153 4.937-6.956 5.995-11.185.275-1.097-.407-1.636-1.366-1.959-.907-.306-1.501-.142-1.871.836-.237.625-.572 1.382-1.448 1.258-.762-.108-.607-.91-.826-1.419-.11-.257-.021-.65-.397-.711-.334-.055-.57.231-.696.476-1.735 3.364-3.44 6.741-3.811 10.757m15.334-11.434c-.251 5.386-2.284 10.248-4.49 15.055-1.308 2.849-2.966 5.374-5.858 6.93-2.544 1.37-4.907.908-6.318-1.68-2.218-4.074-3.088-8.392-1.717-12.965 1.196-3.99 3.023-7.646 5.786-10.803.423-.483.961-.977 1.489-.83 1.147.318 1.584-.499 1.988-1.137 1.091-1.733 2.678-2.147 4.503-1.834 2.015.347 3.632 1.325 4.32 3.42.412 1.254.482 2.536.297 3.844M109.652 49.623c-.443.442-.464.904-.55 1.34-.095.492-.448.77-.848.533-.986-.586-1.462.12-2.004.676-1.464 1.499-2.784 3.15-3.764 4.975-1.062 1.976-2.188 4.018-1.9 6.444.179 1.508.318 3.165 1.986 3.664 1.709.51 3-.61 4.121-1.807.067-.072.111-.165.175-.241 2.443-2.957 3.533-6.542 4.408-10.152.472-1.947-.05-3.91-1.624-5.432m6.461 1.558c-.105 4.648-1.642 8.898-3.374 13.145-1.195 2.932-2.795 5.524-4.837 7.893-1.788 2.072-5.45 2.9-7.965 1.42-.942-.554-1.109-1.781-2.137-2.198 1.195-1.302-.61-1.846-.717-2.836-.438-4.019-.313-7.882 1.57-11.654 1.84-3.694 4.25-6.804 7.53-9.258.365-.273.46-.575.5-1 .057-.588.134-1.202.357-1.74 1.282-3.096 3.425-3.6 5.926-1.377 2.265 2.013 3.23 4.602 3.147 7.605M30.467 54.042c.06.763-.062 1.639.714 2.02.724.356 1.303-.288 1.842-.703.756-.58 1.376-1.308 1.88-2.113 2.001-3.201 3.32-6.662 3.899-10.407.146-.95.165-2.127-.767-2.306-.985-.189-2.4-.42-3.002 1.059-.167.411-.377.822-.644 1.175-2.516 3.345-3.094 7.351-3.922 11.275M42.665 42.15c-.327 5.164-1.846 10.36-4.633 15.18-.348.601-.77 1.16-1.12 1.76-1.414 2.428-3.646 3.389-6.317 3.455-.923.022-1.437-.71-1.854-1.481-1.506-2.79-1.89-5.768-1.275-8.829 1.22-6.064 3.488-11.716 6.91-16.888.61-.925 1.396-1.684 2.2-2.41.91-.82 1.684-.51 1.992.695.105.414.075.894.65 1.052 2.295.631 2.601 2.713 3.17 4.542.245.788.171 1.676.277 2.924M52.32 78.102c1.222-1.088 1.64-2.404 2.292-3.609 1.2-2.216 1.743-4.569 2.073-7.011.055-.407.032-.841-.448-.985-.47-.14-.714.252-.923.565-.19.284-.204.802-.441.918-.802.39-.258 2.364-1.972 1.66-.22-.09-.423.307-.162.5 1.138.844.412 1.769.101 2.622-.608 1.673-1.045 3.34-.52 5.34m-1.184 6.703c1.634-.766.964-1.56.017-1.921-2.163-.827-2.299-2.823-2.695-4.554-.254-1.107-.04-2.402.25-3.54 1.31-5.15 3.672-9.842 6.512-14.296.467-.734 1.29-1.212 1.759-1.997.202-.339.595-.558 1.035-.409.435.148.562.456.514.935-.09.893.298 1.566.954 2.213 1.804 1.777 1.635 4.166 1.445 6.347-.486 5.57-2.36 10.731-5.393 15.423-.924 1.43-2.212 2.526-4.398 1.8M47.752 11.557l-.403-1.406c-1.3 1.649-2.174 3.358-2.704 5.219-.352 1.232.607 2.298 1.892 2.23 1.295-.068 2.253-.788 2.948-1.812 1.83-2.7 2.646-5.812 3.116-8.959.14-.937.028-2.206-.554-3.241-.503-.894.515-3.145 1.565-3.484 1.315-.425 1.939.528 2.386 1.489.883 1.893.574 3.947.393 5.895-.41 4.405-1.732 8.569-4 12.395-1.01 1.703-2.169 3.268-4.32 3.578-3.664.527-5.166.14-6.118-3.549-1.256-4.862 1.405-11.607 5.541-14.523.458-.324.921-.597 1.517-.366.679.263.58.889.603 1.4.086 1.906-.765 3.53-1.486 5.188l-.376-.054M73.101 101.986c-1.173.102-2.03-.36-2.082-1.482-.091-1.982-.532-3.83.044-6 .97-3.653 2.46-6.938 4.508-9.993.904-1.348.536-2.846 1.107-4.194.475-1.122 1.035-2.146 1.915-2.985.57-.544 1.178-.95 1.99-.483.764.44 1.082.923 1.13 1.98.298 6.62-2.202 12.522-4.429 18.507-.493 1.323-1.28 2.462-2.1 3.596-.55.76-1.216 1.146-2.083 1.054" transform="translate(-235 -5360) translate(235 5360)"/>
            </g>
        </g>
    </g>
</svg>
