<svg xmlns="http://www.w3.org/2000/svg" width="106" height="133" viewBox="0 0 106 133">
    <g fill="none" fill-rule="evenodd">
        <g fill="#FFF">
            <g>
                <path d="M8.913 57.483c-.456-.685-.912-1.369-1.369-2.047.088-.663 1.468-1.427-.263-2.003-.168-.057.052-.879.092-1.344.548.042 1.228-.07 1.625.152 2.492 1.398 2.414 4.224-.085 5.242M48.725 52.173l-.087-.084c-.711 1.204-1.404 2.42-2.193 3.586-.043.064-1.221-.192-1.306-.44-.295-.864 2.22-2.93 3.586-3.062" transform="translate(19 -6225) translate(-19 6225)"/>
                <path d="M80.38 59.583c-.79-3.14-1.398-6.212-2.368-9.164-.561-1.706-1.926-2.78-3.913-1.699-1.972 1.073-3.909 2.21-5.834 3.362-.091.053.085.524.112.803.05.526.248 1.11.092 1.57-.926 2.729-2.353 5.356-2.835 8.15-1.122 6.504.268 11.173 8.64 10.799.249-.011.511-.072.746-.017 1.447.338 2.235-.323 2.548-1.666.936-3.999 1.855-8.003 2.812-12.138M64.483 46.78l-.552-.533c-2.499 2.194-5.312 4.123-7.435 6.633C50.4 60.087 45.09 67.803 43.14 77.3c-1.003 4.884-1.176 9.81 2.816 13.412 3.856 3.48 8.652 2.93 13.25 1.412 5.78-1.907 9.952-5.923 13.426-10.725 2.097-2.9 2.035-2.944-1.471-3.824-8.21-2.06-12.798-7.304-12.626-15.044.1-4.433 1.49-8.649 3.888-12.461.69-1.096 1.374-2.194 2.06-3.29M8.795 58.186c-.552 3.268-1.195 6.525-1.632 9.807-.466 3.511-.858 7.042-1.062 10.577-.184 3.195-.163 6.41-.04 9.609.048 1.257.766 2.477.912 3.745.168 1.457-.16 2.982.093 4.414.29 1.64.864 3.258 1.519 4.798 3.268 7.683 6.947 15.15 13.996 20.171 10.106 7.199 21.218 8.497 32.757 4.335 11.404-4.112 19.873-12.276 27.51-21.341 7.116-8.447 12.064-17.958 14.991-28.684 1.726-6.323 2.276-12.747 1.895-19.021-.329-5.409-2.43-10.931-7.43-14.413-4.56-3.177-9.688-2.869-14.856-2.275-.883.102-1.837-.22-2.681-.022-.954.224-1.978.646-2.678 1.296-.642.596-.766 1.486.68 1.527 5.914.172 12.12 6.742 12.596 13.412.243 3.413.917 6.764-.299 10.193-.34.963.518 2.428 1.063 3.547.098.203 1.349-.152 2.176-.265.488 2.25-.924 4.067-2.452 5.134-3.404 2.377-4.866 6.027-6.943 9.26-3.55 5.525-7.637 10.394-13.964 12.872-10.345 4.051-23.771.227-28.321-10.794-1.949-4.722-1.884-9.728-.101-14.444 1.743-4.61 4.07-9.004 6.208-13.46.41-.855 1.021-1.99 2.166-.524.094.123.747.044.896-.139 3.585-4.39 7.135-8.807 10.61-13.37l-8.542 7.883.082.093c.327-.928.424-2.043 1.013-2.754C54.911 42.162 61.92 36.456 71.23 34.14c7.349-1.83 14.205-.977 20.9 2.867 5.84 3.353 9.99 7.884 12.236 14.122 1.121 3.11 1.326 6.357 1.455 9.725.134 3.5.367 6.98-.095 10.439-1.633 12.193-6.22 23.185-13.772 32.933-2.421 3.126-4.576 6.5-7.289 9.347-2.733 2.87-5.97 5.271-9.056 7.792-1.9 1.55-3.902 2.978-5.904 4.396-11.754 8.328-24.531 8.85-37.815 4.706-13.466-4.2-22.351-13.198-27.4-26.25C.108 92.89-1.037 81.242.925 69.353c.912-5.526 2.643-10.92 4.142-16.932C6.227 54.054 6.9 55 7.573 55.94c.408.744.815 1.494 1.222 2.246M28.102 20.02l-.552-.57-4.287 4.88.482.435 4.357-4.745M11.7 49.491l-1.275-2.102c-.143.592-.212 1.217-.454 1.764-.187.424-.59.748-.847 1.059-2.671-2.178-1.14-4.158-.087-6.31 7.187-14.687 17.586-26.546 30.695-35.927C47.015 2.763 54.876-1.094 64.202.28c1.75.259 3.454.899 5.14 1.483.353.122.529.773.786 1.179-.517.134-1.045.413-1.55.376-2.204-.159-4.4-.548-6.602-.6-5.678-.135-10.311 2.7-14.783 5.782-3.795 2.617-7.982 4.925-11.077 8.256-5.832 6.274-10.991 13.196-16.465 19.817-.424.514-1.152.755-1.698 1.179-.265.205-.528.505-.632.817-.377 1.124-.502 2.378-1.06 3.388-1.376 2.497-2.94 4.887-4.561 7.534" transform="translate(19 -6225) translate(-19 6225)"/>
            </g>
        </g>
    </g>
</svg>
