<svg xmlns="http://www.w3.org/2000/svg" width="24" height="22" viewBox="0 0 24 22">
    <g fill="none" fill-rule="evenodd">
        <g fill="#000">
            <g>
                <path d="M17.252 15.778l.098.106c.193-.184.39-.364.574-.558.03-.033-.004-.126-.008-.19-.06.014-.143.01-.176.048-.17.192-.327.395-.488.594m1.815 2.018l.131.153.822-.781-.08-.087-.873.715m1.965.878l-.076-.1c-.4.243-.802.484-1.198.734-.057.036-.086.117-.128.177.084.012.196.065.248.03.391-.27.77-.558 1.154-.84M2.612 5.904c.093.06.21.196.312.185.107-.012.2-.163.298-.253l-.512-.525-.097.593m9.203-.107l.115-.12-1.69-1.668-.151.158 1.726 1.63m-1.74 5.799c-.093.272-.216.455-.197.621.021.183.132.43.278.505.146.075.384-.029.581-.054-.026-.135-.012-.299-.085-.4-.168-.238-.377-.445-.576-.672m11.76 6.94l1.333-1.44-.067-.067c-.387.388-.745.812-1.167 1.158-.943.774-1.916 1.511-2.88 2.259-.195.15-.407.28-.61.421-.236.166-.479.469-.673-.041-.084.034-.207.045-.244.107-.307.523-.627.581-1.157.119.152.452.073.58-.379.479-.275-.062-.603.117-.91.182-1.397.296-2.781.058-4.18-.046-2.215-.165-4.122-1.1-5.899-2.282-1.482-.986-2.576-2.391-3.624-3.85C0 13.616-.124 11.522.074 9.316c.16-1.774.735-3.41 1.631-4.936.717-1.219 1.743-2.172 2.732-3.168C5.434.208 6.687.128 7.941.003c.3-.03.637.157.931.298.333.159.62.418.957.566 1.412.62 2.43 1.732 3.501 2.772.915.889 1.78 1.828 2.666 2.745 1.988 2.056 4 4.088 5.948 6.181.639.686 1.114 1.526 1.651 2.305.12.174.207.377.278.578.174.486.227.92-.224 1.35-.605.573-1.13 1.23-1.69 1.85l-.122-.112" transform="translate(-301 -7664) translate(301 7664)"/>
            </g>
        </g>
    </g>
</svg>
