<svg xmlns="http://www.w3.org/2000/svg" width="40" height="37" viewBox="0 0 40 37">
    <g fill="none" fill-rule="evenodd">
        <g fill="#000">
            <g>
                <path d="M28.753 26.296l.163.178c.322-.308.651-.608.957-.931.05-.054-.006-.21-.013-.318-.1.026-.238.018-.294.081-.282.32-.544.659-.813.99m3.026 3.364l.218.255 1.37-1.302-.132-.144-1.456 1.191m3.274 1.464l-.126-.168c-.667.406-1.336.807-1.996 1.224-.096.06-.144.195-.214.295.14.02.327.108.412.05.653-.451 1.285-.93 1.924-1.401M4.354 9.842c.155.1.35.327.519.308.179-.02.332-.271.497-.422l-.853-.875-.163.989m15.34-.178l.19-.201-2.815-2.78-.253.264 2.877 2.717m-2.899 9.664c-.155.453-.36.758-.329 1.035.035.306.22.717.463.842.244.125.64-.048.969-.09-.043-.226-.021-.498-.142-.668-.28-.395-.629-.74-.96-1.119m19.6 11.566l2.221-2.4-.11-.111c-.646.647-1.243 1.353-1.946 1.93-1.571 1.29-3.194 2.519-4.8 3.765-.325.251-.678.467-1.015.703-.395.276-.8.78-1.124-.07-.139.058-.345.075-.406.179-.511.871-1.046.969-1.929.198.254.754.123.967-.63.799-.46-.103-1.006.195-1.516.303-2.33.493-4.637.097-6.968-.077-3.692-.275-6.87-1.832-9.831-3.802-2.47-1.644-4.295-3.987-6.041-6.417-2.3-3.2-2.506-6.69-2.176-10.368.265-2.955 1.224-5.684 2.718-8.226 1.195-2.032 2.905-3.62 4.553-5.28C9.057.347 11.146.214 13.235.005c.499-.05 1.062.262 1.552.496.555.266 1.034.697 1.594.943 2.354 1.034 4.052 2.888 5.836 4.622 1.525 1.48 2.966 3.046 4.443 4.575 3.313 3.426 6.667 6.813 9.914 10.3 1.064 1.145 1.856 2.545 2.752 3.842.2.29.343.63.463.963.29.81.378 1.534-.374 2.25-1.008.956-1.885 2.05-2.818 3.085l-.203-.187" transform="translate(-1198 -3904) translate(1198 3904)"/>
            </g>
        </g>
    </g>
</svg>
